<svg width="455" height="530" xmlns="http://www.w3.org/2000/svg" version="1.0"><g stroke="null"><path stroke="#3179f6" fill="#3179f6" d="M.685 456h178.808v70.244H.685z"/><path stroke="#efbf54" fill="#efbf54" d="M182.473 456h268.212v70.244H182.473z"/><g fill="#fff" text-anchor="middle" font-family="Verdana,Geneva,DejaVu Sans,sans-serif" text-rendering="geometricPrecision" font-size="110"><text aria-hidden="true" x="226.366" y="1582.991" fill="#010101" fill-opacity=".3" textLength="330" transform="matrix(.45035 0 0 .4246 -3.76 -159.372)">支付宝</text><text x="226.366" y="1572.991" textLength="330" transform="matrix(.45035 0 0 .4246 -3.76 -159.372)">支付宝</text><text aria-hidden="true" x="706.366" y="1582.991" fill="#010101" fill-opacity=".3" textLength="470" transform="matrix(.45035 0 0 .4246 -3.76 -159.372)">向TA捐助</text><text x="706.366" y="1572.991" textLength="470" transform="matrix(.45035 0 0 .4246 -3.76 -159.372)">向TA捐助</text></g></g><g stroke="null"><path d="M23 23h14.034v14.034H23zM37.034 23h14.034v14.034H37.034zM51.069 23h14.034v14.034H51.069z"/><path d="M65.103 23h14.034v14.034H65.103zM79.138 23h14.034v14.034H79.138z"/><path d="M93.172 23h14.034v14.034H93.172zM107.207 23h14.034v14.034h-14.034zM135.276 23h14.034v14.034h-14.034zM149.31 23h14.034v14.034H149.31zM205.448 23h14.034v14.034h-14.034zM219.483 23h14.034v14.034h-14.034zM261.586 23h14.034v14.034h-14.034zM275.621 23h14.034v14.034h-14.034zM331.759 23h14.034v14.034h-14.034zM345.793 23h14.034v14.034h-14.034zM359.828 23h14.034v14.034h-14.034zM373.862 23h14.034v14.034h-14.034zM387.897 23h14.034v14.034h-14.034zM401.931 23h14.034v14.034h-14.034zM415.966 23H430v14.034h-14.034zM23 37.034h14.034v14.034H23zM107.207 37.034h14.034v14.034h-14.034zM135.276 37.034h14.034v14.034h-14.034zM149.31 37.034h14.034v14.034H149.31zM163.345 37.034h14.034v14.034h-14.034zM275.621 37.034h14.034v14.034h-14.034zM289.655 37.034h14.034v14.034h-14.034zM331.759 37.034h14.034v14.034h-14.034zM415.966 37.034H430v14.034h-14.034zM23 51.069h14.034v14.034H23zM51.069 51.069h14.034v14.034H51.069z"/><path d="M65.103 51.069h14.034v14.034H65.103zM79.138 51.069h14.034v14.034H79.138zM107.207 51.069h14.034v14.034h-14.034zM135.276 51.069h14.034v14.034h-14.034zM163.345 51.069h14.034v14.034h-14.034zM177.379 51.069h14.034v14.034h-14.034zM205.448 51.069h14.034v14.034h-14.034zM219.483 51.069h14.034v14.034h-14.034zM233.517 51.069h14.034v14.034h-14.034zM303.69 51.069h14.034v14.034H303.69zM331.759 51.069h14.034v14.034h-14.034zM359.828 51.069h14.034v14.034h-14.034zM373.862 51.069h14.034v14.034h-14.034zM387.897 51.069h14.034v14.034h-14.034zM415.966 51.069H430v14.034h-14.034zM23 65.103h14.034v14.034H23z"/><path d="M51.069 65.103h14.034v14.034H51.069z"/><path d="M65.103 65.103h14.034v14.034H65.103zM79.138 65.103h14.034v14.034H79.138zM107.207 65.103h14.034v14.034h-14.034zM149.31 65.103h14.034v14.034H149.31zM205.448 65.103h14.034v14.034h-14.034zM247.552 65.103h14.034v14.034h-14.034zM261.586 65.103h14.034v14.034h-14.034zM289.655 65.103h14.034v14.034h-14.034zM303.69 65.103h14.034v14.034H303.69zM331.759 65.103h14.034v14.034h-14.034zM359.828 65.103h14.034v14.034h-14.034zM373.862 65.103h14.034v14.034h-14.034zM387.897 65.103h14.034v14.034h-14.034zM415.966 65.103H430v14.034h-14.034zM23 79.138h14.034v14.034H23zM51.069 79.138h14.034v14.034H51.069z"/><path d="M65.103 79.138h14.034v14.034H65.103zM79.138 79.138h14.034v14.034H79.138zM107.207 79.138h14.034v14.034h-14.034zM135.276 79.138h14.034v14.034h-14.034zM163.345 79.138h14.034v14.034h-14.034zM177.379 79.138h14.034v14.034h-14.034zM247.552 79.138h14.034v14.034h-14.034zM261.586 79.138h14.034v14.034h-14.034zM289.655 79.138h14.034v14.034h-14.034zM303.69 79.138h14.034v14.034H303.69zM331.759 79.138h14.034v14.034h-14.034zM359.828 79.138h14.034v14.034h-14.034zM373.862 79.138h14.034v14.034h-14.034zM387.897 79.138h14.034v14.034h-14.034zM415.966 79.138H430v14.034h-14.034zM23 93.172h14.034v14.034H23z"/><path d="M107.207 93.172h14.034v14.034h-14.034zM149.31 93.172h14.034v14.034H149.31zM177.379 93.172h14.034v14.034h-14.034zM205.448 93.172h14.034v14.034h-14.034zM247.552 93.172h14.034v14.034h-14.034zM261.586 93.172h14.034v14.034h-14.034zM275.621 93.172h14.034v14.034h-14.034zM303.69 93.172h14.034v14.034H303.69zM331.759 93.172h14.034v14.034h-14.034zM415.966 93.172H430v14.034h-14.034zM23 107.207h14.034v14.034H23zM37.034 107.207h14.034v14.034H37.034zM51.069 107.207h14.034v14.034H51.069z"/><path d="M65.103 107.207h14.034v14.034H65.103zM79.138 107.207h14.034v14.034H79.138z"/><path d="M93.172 107.207h14.034v14.034H93.172zM107.207 107.207h14.034v14.034h-14.034zM135.276 107.207h14.034v14.034h-14.034zM163.345 107.207h14.034v14.034h-14.034zM191.414 107.207h14.034v14.034h-14.034zM219.483 107.207h14.034v14.034h-14.034zM247.552 107.207h14.034v14.034h-14.034zM275.621 107.207h14.034v14.034h-14.034zM303.69 107.207h14.034v14.034H303.69zM331.759 107.207h14.034v14.034h-14.034zM345.793 107.207h14.034v14.034h-14.034zM359.828 107.207h14.034v14.034h-14.034zM373.862 107.207h14.034v14.034h-14.034zM387.897 107.207h14.034v14.034h-14.034zM401.931 107.207h14.034v14.034h-14.034zM415.966 107.207H430v14.034h-14.034zM149.31 121.241h14.034v14.034H149.31zM163.345 121.241h14.034v14.034h-14.034zM191.414 121.241h14.034v14.034h-14.034zM205.448 121.241h14.034v14.034h-14.034zM219.483 121.241h14.034v14.034h-14.034zM233.517 121.241h14.034v14.034h-14.034zM275.621 121.241h14.034v14.034h-14.034zM289.655 121.241h14.034v14.034h-14.034zM23 135.276h14.034v14.034H23zM65.103 135.276h14.034v14.034H65.103zM79.138 135.276h14.034v14.034H79.138z"/><path d="M93.172 135.276h14.034v14.034H93.172zM107.207 135.276h14.034v14.034h-14.034zM121.241 135.276h14.034v14.034h-14.034zM135.276 135.276h14.034v14.034h-14.034zM149.31 135.276h14.034v14.034H149.31zM163.345 135.276h14.034v14.034h-14.034zM191.414 135.276h14.034v14.034h-14.034zM233.517 135.276h14.034v14.034h-14.034zM261.586 135.276h14.034v14.034h-14.034zM317.724 135.276h14.034v14.034h-14.034zM359.828 135.276h14.034v14.034h-14.034zM387.897 135.276h14.034v14.034h-14.034zM401.931 135.276h14.034v14.034h-14.034zM415.966 135.276H430v14.034h-14.034zM37.034 149.31h14.034v14.034H37.034zM79.138 149.31h14.034v14.034H79.138z"/><path d="M93.172 149.31h14.034v14.034H93.172zM121.241 149.31h14.034v14.034h-14.034zM135.276 149.31h14.034v14.034h-14.034zM163.345 149.31h14.034v14.034h-14.034zM233.517 149.31h14.034v14.034h-14.034zM247.552 149.31h14.034v14.034h-14.034zM261.586 149.31h14.034v14.034h-14.034zM275.621 149.31h14.034v14.034h-14.034zM289.655 149.31h14.034v14.034h-14.034zM345.793 149.31h14.034v14.034h-14.034zM359.828 149.31h14.034v14.034h-14.034zM387.897 149.31h14.034v14.034h-14.034zM401.931 149.31h14.034v14.034h-14.034zM51.069 163.345h14.034v14.034H51.069zM79.138 163.345h14.034v14.034H79.138z"/><path d="M93.172 163.345h14.034v14.034H93.172zM107.207 163.345h14.034v14.034h-14.034zM149.31 163.345h14.034v14.034H149.31zM163.345 163.345h14.034v14.034h-14.034zM219.483 163.345h14.034v14.034h-14.034zM233.517 163.345h14.034v14.034h-14.034zM247.552 163.345h14.034v14.034h-14.034zM331.759 163.345h14.034v14.034h-14.034zM359.828 163.345h14.034v14.034h-14.034zM387.897 163.345h14.034v14.034h-14.034zM23 177.379h14.034v14.034H23zM37.034 177.379h14.034v14.034H37.034zM65.103 177.379h14.034v14.034H65.103zM79.138 177.379h14.034v14.034H79.138zM121.241 177.379h14.034v14.034h-14.034zM191.414 177.379h14.034v14.034h-14.034zM261.586 177.379h14.034v14.034h-14.034zM289.655 177.379h14.034v14.034h-14.034zM303.69 177.379h14.034v14.034H303.69zM331.759 177.379h14.034v14.034h-14.034zM345.793 177.379h14.034v14.034h-14.034zM359.828 177.379h14.034v14.034h-14.034zM373.862 177.379h14.034v14.034h-14.034zM415.966 177.379H430v14.034h-14.034zM23 191.414h14.034v14.034H23zM65.103 191.414h14.034v14.034H65.103zM107.207 191.414h14.034v14.034h-14.034zM135.276 191.414h14.034v14.034h-14.034zM191.414 191.414h14.034v14.034h-14.034zM233.517 191.414h14.034v14.034h-14.034zM247.552 191.414h14.034v14.034h-14.034zM303.69 191.414h14.034v14.034H303.69zM331.759 191.414h14.034v14.034h-14.034zM345.793 191.414h14.034v14.034h-14.034zM415.966 191.414H430v14.034h-14.034zM23 205.448h14.034v14.034H23zM37.034 205.448h14.034v14.034H37.034zM51.069 205.448h14.034v14.034H51.069zM79.138 205.448h14.034v14.034H79.138z"/><path d="M93.172 205.448h14.034v14.034H93.172zM121.241 205.448h14.034v14.034h-14.034zM135.276 205.448h14.034v14.034h-14.034zM331.759 205.448h14.034v14.034h-14.034zM345.793 205.448h14.034v14.034h-14.034zM359.828 205.448h14.034v14.034h-14.034zM373.862 205.448h14.034v14.034h-14.034zM387.897 205.448h14.034v14.034h-14.034zM401.931 205.448h14.034v14.034h-14.034zM415.966 205.448H430v14.034h-14.034zM37.034 219.483h14.034v14.034H37.034zM51.069 219.483h14.034v14.034H51.069z"/><path d="M65.103 219.483h14.034v14.034H65.103zM93.172 219.483h14.034v14.034H93.172zM107.207 219.483h14.034v14.034h-14.034zM121.241 219.483h14.034v14.034h-14.034zM135.276 219.483h14.034v14.034h-14.034zM317.724 219.483h14.034v14.034h-14.034zM387.897 219.483h14.034v14.034h-14.034zM415.966 219.483H430v14.034h-14.034zM23 233.517h14.034v14.034H23zM37.034 233.517h14.034v14.034H37.034zM65.103 233.517h14.034v14.034H65.103zM79.138 233.517h14.034v14.034H79.138zM121.241 233.517h14.034v14.034h-14.034zM317.724 233.517h14.034v14.034h-14.034zM331.759 233.517h14.034v14.034h-14.034zM345.793 233.517h14.034v14.034h-14.034zM387.897 233.517h14.034v14.034h-14.034zM415.966 233.517H430v14.034h-14.034zM23 247.552h14.034v14.034H23zM37.034 247.552h14.034v14.034H37.034zM51.069 247.552h14.034v14.034H51.069zM79.138 247.552h14.034v14.034H79.138z"/><path d="M93.172 247.552h14.034v14.034H93.172zM107.207 247.552h14.034v14.034h-14.034zM121.241 247.552h14.034v14.034h-14.034zM345.793 247.552h14.034v14.034h-14.034zM373.862 247.552h14.034v14.034h-14.034zM37.034 261.586h14.034v14.034H37.034zM51.069 261.586h14.034v14.034H51.069z"/><path d="M65.103 261.586h14.034v14.034H65.103zM93.172 261.586h14.034v14.034H93.172zM149.31 261.586h14.034v14.034H149.31zM163.345 261.586h14.034v14.034h-14.034zM177.379 261.586h14.034v14.034h-14.034zM205.448 261.586h14.034v14.034h-14.034zM233.517 261.586h14.034v14.034h-14.034zM289.655 261.586h14.034v14.034h-14.034zM303.69 261.586h14.034v14.034H303.69zM317.724 261.586h14.034v14.034h-14.034zM345.793 261.586h14.034v14.034h-14.034zM359.828 261.586h14.034v14.034h-14.034zM387.897 261.586h14.034v14.034h-14.034zM401.931 261.586h14.034v14.034h-14.034zM93.172 275.621h14.034v14.034H93.172zM107.207 275.621h14.034v14.034h-14.034zM121.241 275.621h14.034v14.034h-14.034zM135.276 275.621h14.034v14.034h-14.034zM163.345 275.621h14.034v14.034h-14.034zM233.517 275.621h14.034v14.034h-14.034zM247.552 275.621h14.034v14.034h-14.034zM261.586 275.621h14.034v14.034h-14.034zM275.621 275.621h14.034v14.034h-14.034zM289.655 275.621h14.034v14.034h-14.034zM303.69 275.621h14.034v14.034H303.69zM317.724 275.621h14.034v14.034h-14.034zM331.759 275.621h14.034v14.034h-14.034zM345.793 275.621h14.034v14.034h-14.034zM373.862 275.621h14.034v14.034h-14.034zM415.966 275.621H430v14.034h-14.034zM51.069 289.655h14.034v14.034H51.069z"/><path d="M65.103 289.655h14.034v14.034H65.103zM93.172 289.655h14.034v14.034H93.172zM121.241 289.655h14.034v14.034h-14.034zM149.31 289.655h14.034v14.034H149.31zM163.345 289.655h14.034v14.034h-14.034zM177.379 289.655h14.034v14.034h-14.034zM191.414 289.655h14.034v14.034h-14.034zM219.483 289.655h14.034v14.034h-14.034zM247.552 289.655h14.034v14.034h-14.034zM359.828 289.655h14.034v14.034h-14.034zM373.862 289.655h14.034v14.034h-14.034zM387.897 289.655h14.034v14.034h-14.034zM107.207 303.69h14.034v14.034h-14.034zM135.276 303.69h14.034v14.034h-14.034zM205.448 303.69h14.034v14.034h-14.034zM219.483 303.69h14.034v14.034h-14.034zM233.517 303.69h14.034v14.034h-14.034zM261.586 303.69h14.034v14.034h-14.034zM275.621 303.69h14.034v14.034h-14.034zM303.69 303.69h14.034v14.034H303.69zM317.724 303.69h14.034v14.034h-14.034zM331.759 303.69h14.034v14.034h-14.034zM345.793 303.69h14.034v14.034h-14.034zM359.828 303.69h14.034v14.034h-14.034zM373.862 303.69h14.034v14.034h-14.034zM387.897 303.69h14.034v14.034h-14.034zM401.931 303.69h14.034v14.034h-14.034zM135.276 317.724h14.034v14.034h-14.034zM163.345 317.724h14.034v14.034h-14.034zM177.379 317.724h14.034v14.034h-14.034zM191.414 317.724h14.034v14.034h-14.034zM219.483 317.724h14.034v14.034h-14.034zM233.517 317.724h14.034v14.034h-14.034zM303.69 317.724h14.034v14.034H303.69zM359.828 317.724h14.034v14.034h-14.034zM373.862 317.724h14.034v14.034h-14.034zM23 331.759h14.034v14.034H23zM37.034 331.759h14.034v14.034H37.034zM51.069 331.759h14.034v14.034H51.069z"/><path d="M65.103 331.759h14.034v14.034H65.103zM79.138 331.759h14.034v14.034H79.138z"/><path d="M93.172 331.759h14.034v14.034H93.172zM107.207 331.759h14.034v14.034h-14.034zM135.276 331.759h14.034v14.034h-14.034zM163.345 331.759h14.034v14.034h-14.034zM191.414 331.759h14.034v14.034h-14.034zM219.483 331.759h14.034v14.034h-14.034zM233.517 331.759h14.034v14.034h-14.034zM289.655 331.759h14.034v14.034h-14.034zM303.69 331.759h14.034v14.034H303.69zM331.759 331.759h14.034v14.034h-14.034zM359.828 331.759h14.034v14.034h-14.034zM373.862 331.759h14.034v14.034h-14.034zM23 345.793h14.034v14.034H23zM107.207 345.793h14.034v14.034h-14.034zM135.276 345.793h14.034v14.034h-14.034zM149.31 345.793h14.034v14.034H149.31zM163.345 345.793h14.034v14.034h-14.034zM177.379 345.793h14.034v14.034h-14.034zM191.414 345.793h14.034v14.034h-14.034zM219.483 345.793h14.034v14.034h-14.034zM247.552 345.793h14.034v14.034h-14.034zM261.586 345.793h14.034v14.034h-14.034zM303.69 345.793h14.034v14.034H303.69zM359.828 345.793h14.034v14.034h-14.034zM415.966 345.793H430v14.034h-14.034zM23 359.828h14.034v14.034H23zM51.069 359.828h14.034v14.034H51.069z"/><path d="M65.103 359.828h14.034v14.034H65.103zM79.138 359.828h14.034v14.034H79.138zM107.207 359.828h14.034v14.034h-14.034zM135.276 359.828h14.034v14.034h-14.034zM177.379 359.828h14.034v14.034h-14.034zM191.414 359.828h14.034v14.034h-14.034zM205.448 359.828h14.034v14.034h-14.034zM219.483 359.828h14.034v14.034h-14.034zM247.552 359.828h14.034v14.034h-14.034zM289.655 359.828h14.034v14.034h-14.034zM303.69 359.828h14.034v14.034H303.69zM317.724 359.828h14.034v14.034h-14.034zM331.759 359.828h14.034v14.034h-14.034zM345.793 359.828h14.034v14.034h-14.034zM359.828 359.828h14.034v14.034h-14.034zM373.862 359.828h14.034v14.034h-14.034zM401.931 359.828h14.034v14.034h-14.034zM23 373.862h14.034v14.034H23zM51.069 373.862h14.034v14.034H51.069z"/><path d="M65.103 373.862h14.034v14.034H65.103zM79.138 373.862h14.034v14.034H79.138zM107.207 373.862h14.034v14.034h-14.034zM135.276 373.862h14.034v14.034h-14.034zM163.345 373.862h14.034v14.034h-14.034zM191.414 373.862h14.034v14.034h-14.034zM233.517 373.862h14.034v14.034h-14.034zM247.552 373.862h14.034v14.034h-14.034zM261.586 373.862h14.034v14.034h-14.034zM275.621 373.862h14.034v14.034h-14.034zM303.69 373.862h14.034v14.034H303.69zM317.724 373.862h14.034v14.034h-14.034zM345.793 373.862h14.034v14.034h-14.034zM415.966 373.862H430v14.034h-14.034zM23 387.897h14.034v14.034H23zM51.069 387.897h14.034v14.034H51.069z"/><path d="M65.103 387.897h14.034v14.034H65.103zM79.138 387.897h14.034v14.034H79.138zM107.207 387.897h14.034v14.034h-14.034zM149.31 387.897h14.034v14.034H149.31zM163.345 387.897h14.034v14.034h-14.034zM191.414 387.897h14.034v14.034h-14.034zM233.517 387.897h14.034v14.034h-14.034zM275.621 387.897h14.034v14.034h-14.034zM289.655 387.897h14.034v14.034h-14.034zM303.69 387.897h14.034v14.034H303.69zM317.724 387.897h14.034v14.034h-14.034zM345.793 387.897h14.034v14.034h-14.034zM359.828 387.897h14.034v14.034h-14.034zM387.897 387.897h14.034v14.034h-14.034zM401.931 387.897h14.034v14.034h-14.034zM415.966 387.897H430v14.034h-14.034zM23 401.931h14.034v14.034H23zM107.207 401.931h14.034v14.034h-14.034zM149.31 401.931h14.034v14.034H149.31zM191.414 401.931h14.034v14.034h-14.034zM205.448 401.931h14.034v14.034h-14.034zM219.483 401.931h14.034v14.034h-14.034zM233.517 401.931h14.034v14.034h-14.034zM275.621 401.931h14.034v14.034h-14.034zM289.655 401.931h14.034v14.034h-14.034zM331.759 401.931h14.034v14.034h-14.034zM345.793 401.931h14.034v14.034h-14.034zM359.828 401.931h14.034v14.034h-14.034zM373.862 401.931h14.034v14.034h-14.034zM387.897 401.931h14.034v14.034h-14.034zM415.966 401.931H430v14.034h-14.034zM23 415.966h14.034V430H23zM37.034 415.966h14.034V430H37.034zM51.069 415.966h14.034V430H51.069z"/><path d="M65.103 415.966h14.034V430H65.103zM79.138 415.966h14.034V430H79.138z"/><path d="M93.172 415.966h14.034V430H93.172zM107.207 415.966h14.034V430h-14.034zM135.276 415.966h14.034V430h-14.034zM149.31 415.966h14.034V430H149.31zM163.345 415.966h14.034V430h-14.034zM177.379 415.966h14.034V430h-14.034zM205.448 415.966h14.034V430h-14.034zM233.517 415.966h14.034V430h-14.034zM247.552 415.966h14.034V430h-14.034zM289.655 415.966h14.034V430h-14.034zM303.69 415.966h14.034V430H303.69zM345.793 415.966h14.034V430h-14.034zM359.828 415.966h14.034V430h-14.034zM373.862 415.966h14.034V430h-14.034z"/></g><path d="M191.18 214.168h-25.382c-3.306 0-5.983 2.7-5.983 6.034v25.597c0 3.331 2.677 6.033 5.983 6.033h25.382c3.305 0 5.98-2.702 5.98-6.033v-25.597c0-3.333-2.675-6.034-5.98-6.034" fill="#1677ff"/><path d="M169.906 243.132c-5.81 0-7.527-4.616-4.656-7.14.958-.854 2.709-1.27 3.642-1.364 3.452-.344 6.646.984 10.416 2.84-2.65 3.486-6.025 5.664-9.402 5.664m20.657-5.314c-1.495-.505-3.5-1.277-5.733-2.092 1.341-2.352 2.412-5.03 3.117-7.94h-7.362v-2.674h9.018v-1.493h-9.018v-4.457h-3.68c-.646 0-.646.642-.646.642v3.815h-9.12v1.493h9.12v2.674h-7.53v1.492h14.605a26.38 26.38 0 01-2.104 5.185c-4.739-1.577-9.796-2.855-12.972-2.069-2.032.505-3.34 1.406-4.11 2.35-3.527 4.33-.997 10.905 6.454 10.905 4.406 0 8.65-2.477 11.939-6.56 4.906 2.38 14.62 6.463 14.62 6.463v-5.82s-1.22-.098-6.598-1.914" fill="#fff"/><path d="M240.907 219.682c0 1.948 1.424 3.26 3.41 3.26 1.986 0 3.41-1.312 3.41-3.26 0-1.911-1.424-3.26-3.41-3.26-1.986 0-3.41 1.349-3.41 3.26" fill="#1677ff"/><path d="M231.389 244.601h5.92v-27.355h-5.92V244.6zM212.39 235.12l3.522-12.178h.15l3.335 12.179h-7.007zm8.619-16.937h-7.945l-8.88 26.419h5.47l1.5-5.172h9.405l1.424 5.172h7.007l-7.981-26.419zM241.357 244.601h5.92v-20.085h-5.92V244.6zM309.148 224.553l.037-.037H303.6l-3.522 12.216h-.187l-4.047-12.216h-6.634l7.983 20.16-3.335 6.146v.15h5.208l10.08-26.419zM258.258 241.154a6.457 6.457 0 01-2.023-.3v-10.867c1.236-.862 2.248-1.274 3.522-1.274 2.21 0 3.972 1.761 3.972 5.508 0 4.797-2.585 6.933-5.471 6.933m3.747-17.05c-2.173 0-3.86.824-5.77 2.398v-1.986h-5.922v26.456h5.922v-6.558c1.124.3 2.173.45 3.447.45 5.284 0 10.043-3.898 10.043-10.83 0-6.22-3.448-9.93-7.72-9.93M282.13 239.73c-1.574.862-2.474 1.199-3.522 1.199-1.425 0-2.324-.937-2.324-2.436 0-.562.112-1.124.562-1.573.712-.713 2.099-1.237 5.284-1.987v4.797zm5.92-.15v-8.394c0-4.572-2.697-7.082-7.456-7.082-3.036 0-5.134.524-8.957 1.686l1.05 4.61c3.484-1.575 5.021-2.25 6.632-2.25 1.95 0 2.81 1.387 2.81 3.523v.15c-6.782 1.274-8.88 1.986-10.192 3.298-.974.974-1.386 2.36-1.386 3.972 0 3.86 2.998 5.92 5.808 5.92 2.099 0 3.785-.786 6.07-2.51l.413 2.098h5.92l-.712-5.021z"/></svg>