<svg width="455" height="530" xmlns="http://www.w3.org/2000/svg" version="1.0"><g stroke="null"><path d="M.685 456h178.808v70.244H.685V456z" fill="#3179f6" stroke="#3179f6"/><path d="M182.473 456h268.212v70.244H182.473V456z" fill="#efbf54" stroke="#efbf54"/><g font-size="110" text-rendering="geometricPrecision" font-family="Verdana,Geneva,DejaVu Sans,sans-serif" text-anchor="middle" fill="#fff"><text textLength="330" fill-opacity=".3" fill="#010101" y="1582.991" x="226.366" aria-hidden="true" transform="matrix(.45035 0 0 .4246 -3.76 -159.372)">CASH</text><text textLength="330" y="1572.991" x="226.366" transform="matrix(.45035 0 0 .4246 -3.76 -159.372)">CASH</text><text textLength="470" fill-opacity=".3" fill="#010101" y="1582.991" x="706.366" aria-hidden="true" transform="matrix(.45035 0 0 .4246 -3.76 -159.372)">DONATE</text><text textLength="470" y="1572.991" x="706.366" transform="matrix(.45035 0 0 .4246 -3.76 -159.372)">DONATE</text></g></g><g stroke="null" stroke-width=".1"><path d="M14.919 30.102c2.656-6.05 10.182-12.248 16.232-13.281 2.656-.59 14.166-.738 25.676-.443 22.578.443 24.939 1.328 31.874 10.625 2.804 3.689 3.099 6.05 3.099 28.922 0 27.3-.443 28.775-10.182 36.006-3.69 2.804-6.05 3.099-28.923 3.099-22.872 0-25.233-.295-28.922-3.099-9.592-7.083-10.182-9.001-10.477-34.235-.295-17.117.147-24.348 1.623-27.594zm13.428 51.647c3.394 3.542 4.132 3.69 25.086 3.69s21.692-.148 25.086-3.69c3.542-3.394 3.69-4.132 3.69-25.086s-.148-21.692-3.69-25.086c-3.394-3.541-4.132-3.689-25.086-3.689s-21.692.148-25.086 3.69c-3.541 3.393-3.689 4.131-3.689 25.085s.148 21.692 3.69 25.086h-.001z"/><path d="M38.382 40.284c1.033-.296 8.558-.443 16.674-.296l14.61.443v32.464H37.2l-.443-15.937c-.295-12.248 0-16.084 1.624-16.674h.001zM14.919 375.402c2.656-6.05 10.182-12.248 16.232-13.28 2.656-.59 14.166-.738 25.676-.443 22.578.442 24.939 1.328 31.874 10.624 2.804 3.69 3.099 6.05 3.099 28.923 0 27.3-.443 28.775-10.182 36.006-3.69 2.803-6.05 3.099-28.923 3.099-22.872 0-25.233-.296-28.922-3.1-9.592-7.082-10.182-9-10.477-34.234-.295-17.118.147-24.348 1.623-27.595zm13.428 50.172c3.394 3.542 4.132 3.69 25.086 3.69s21.692-.148 25.086-3.69c3.542-3.394 3.69-4.132 3.69-25.086s-.148-21.692-3.69-25.086c-3.394-3.541-4.132-3.689-25.086-3.689s-21.692.148-25.086 3.69c-3.541 3.393-3.689 4.131-3.689 25.085s.148 21.692 3.69 25.086h-.001z"/><path d="M38.382 384.108c1.033-.295 8.558-.442 16.674-.295l14.61.443v32.464H37.2l-.443-15.937c-.295-12.248 0-16.084 1.624-16.675h.001zM16.395 109.639c3.836-1.476 7.083.59 6.492 4.132-.295 2.508-1.475 3.394-4.131 3.394-2.657 0-3.837-.886-4.132-3.394-.295-1.919.443-3.69 1.77-4.132h.001zm0 35.415c3.836-1.475 7.083.59 6.492 4.132-.295 2.509-1.475 3.394-4.131 3.394-2.657 0-3.837-.885-4.132-3.394-.295-1.918.443-3.69 1.77-4.132h.001zm0 22.135c3.836-1.476 7.083.59 6.492 4.132-.295 2.508-1.475 3.394-4.131 3.394-2.657 0-3.837-.886-4.132-3.394-.295-1.919.443-3.69 1.77-4.132h.001zm0 57.55c3.836-1.476 7.083.59 6.492 4.132-.295 2.508-1.475 3.394-4.131 3.394-2.657 0-3.837-.886-4.132-3.394-.295-1.919.443-3.69 1.77-4.132h.001zm0 33.94c3.836-1.476 7.083.59 6.492 4.132-.295 2.508-1.475 3.394-4.131 3.394-2.657 0-3.837-.886-4.132-3.394-.295-1.919.443-3.69 1.77-4.132h.001zm0 47.221c3.836-1.476 7.083.59 6.492 4.131-.295 2.509-1.475 3.394-4.131 3.394-2.657 0-3.837-.885-4.132-3.394-.295-1.918.443-3.689 1.77-4.132l.001.001zm0 10.329c3.836-1.476 7.083.59 6.492 4.132-.295 2.508-1.475 3.394-4.131 3.394-2.657 0-3.837-.886-4.132-3.394-.295-1.919.443-3.69 1.77-4.132h.001zm0 23.611c3.836-1.476 7.083.59 6.492 4.131-.295 2.509-1.475 3.394-4.131 3.394-2.657 0-3.837-.885-4.132-3.394-.295-1.918.443-3.69 1.77-4.132l.001.001zM28.2 133.249c3.836-1.476 7.083.59 6.493 4.132-.296 2.508-1.476 3.394-4.132 3.394-2.656 0-3.837-.886-4.132-3.394-.295-1.918.443-3.69 1.77-4.132h.001zm0 45.745c3.836-1.476 7.083.59 6.493 4.132-.296 2.508-1.476 3.394-4.132 3.394-2.656 0-3.837-.886-4.132-3.394-.295-1.919.443-3.69 1.77-4.132h.001zm0 11.806c3.836-1.476 7.083.59 6.493 4.131-.296 2.509-1.476 3.394-4.132 3.394-2.656 0-3.837-.885-4.132-3.394-.295-1.918.443-3.69 1.77-4.132l.001.001zm0 11.804c3.836-1.475 7.083.59 6.493 4.132-.296 2.509-1.476 3.394-4.132 3.394-2.656 0-3.837-.885-4.132-3.394-.295-1.918.443-3.689 1.77-4.132h.001zm0 45.746c3.836-1.476 7.083.59 6.493 4.131-.296 2.509-1.476 3.394-4.132 3.394-2.656 0-3.837-.885-4.132-3.394-.295-1.918.443-3.69 1.77-4.132l.001.001zm0 22.134c3.836-1.476 7.083.59 6.493 4.132-.296 2.508-1.476 3.394-4.132 3.394-2.656 0-3.837-.886-4.132-3.394-.295-1.919.443-3.69 1.77-4.132h.001zm0 11.806c3.836-1.477 7.083.59 6.493 4.13-.296 2.51-1.476 3.395-4.132 3.395-2.656 0-3.837-.886-4.132-3.394-.295-1.918.443-3.69 1.77-4.132l.001.001zm0 11.804c3.836-1.475 7.083.59 6.493 4.132-.296 2.509-1.476 3.394-4.132 3.394-2.656 0-3.837-.885-4.132-3.394-.295-1.918.443-3.69 1.77-4.132h.001zm0 11.806c3.836-1.476 7.083.59 6.493 4.131-.296 2.509-1.476 3.394-4.132 3.394-2.656 0-3.837-.885-4.132-3.394-.295-1.918.443-3.689 1.77-4.132l.001.001zm0 10.329c3.836-1.476 7.083.59 6.493 4.132-.296 2.508-1.476 3.394-4.132 3.394-2.656 0-3.837-.886-4.132-3.394-.295-1.919.443-3.69 1.77-4.132h.001zm11.805-171.175c3.837-1.475 7.083.59 6.493 4.132-.295 2.509-1.476 3.394-4.132 3.394-2.656 0-3.837-.885-4.132-3.394-.295-1.918.443-3.69 1.77-4.132h.001zm0 10.33c3.837-1.476 7.083.59 6.493 4.132-.295 2.508-1.476 3.393-4.132 3.393-2.656 0-3.837-.885-4.132-3.393-.295-1.919.443-3.69 1.77-4.132h.001zm0 23.61c3.837-1.476 7.083.59 6.493 4.132-.295 2.508-1.476 3.394-4.132 3.394-2.656 0-3.837-.886-4.132-3.394-.295-1.919.443-3.69 1.77-4.132h.001zm0 11.806c3.837-1.476 7.083.59 6.493 4.131-.295 2.509-1.476 3.394-4.132 3.394-2.656 0-3.837-.885-4.132-3.394-.295-1.918.443-3.69 1.77-4.132l.001.001zm0 33.939c3.837-1.476 7.083.59 6.493 4.132-.295 2.508-1.476 3.394-4.132 3.394-2.656 0-3.837-.886-4.132-3.394-.295-1.919.443-3.69 1.77-4.132h.001zm0 23.611c3.837-1.476 7.083.59 6.493 4.131-.295 2.509-1.476 3.394-4.132 3.394-2.656 0-3.837-.885-4.132-3.394-.295-1.918.443-3.69 1.77-4.132l.001.001zm0 10.329c3.837-1.476 7.083.59 6.493 4.132-.295 2.508-1.476 3.394-4.132 3.394-2.656 0-3.837-.886-4.132-3.394-.295-1.919.443-3.69 1.77-4.132h.001zm0 11.805c3.837-1.476 7.083.59 6.493 4.132-.295 2.508-1.476 3.394-4.132 3.394-2.656 0-3.837-.886-4.132-3.394-.295-1.919.443-3.69 1.77-4.132h.001zm0 11.806c3.837-1.477 7.083.59 6.493 4.13-.295 2.51-1.476 3.395-4.132 3.395-2.656 0-3.837-.886-4.132-3.394-.295-1.918.443-3.69 1.77-4.132l.001.001zm0 23.61c3.837-1.476 7.083.59 6.493 4.131-.295 2.509-1.476 3.394-4.132 3.394-2.656 0-3.837-.885-4.132-3.394-.295-1.918.443-3.689 1.77-4.132l.001.001zm0 33.94c3.837-1.476 7.083.59 6.493 4.131-.295 2.509-1.476 3.394-4.132 3.394-2.656 0-3.837-.885-4.132-3.394-.295-1.918.443-3.69 1.77-4.132l.001.001zm10.329-194.786c3.837-1.475 7.084.59 6.493 4.132-.295 2.509-1.475 3.394-4.132 3.394-2.656 0-3.836-.885-4.131-3.394-.296-1.918.442-3.69 1.77-4.132zm0 10.33c3.837-1.476 7.084.59 6.493 4.132-.295 2.508-1.475 3.393-4.132 3.393-2.656 0-3.836-.885-4.131-3.393-.296-1.919.442-3.69 1.77-4.132zm0 57.55c3.837-1.476 7.084.59 6.493 4.132-.295 2.508-1.475 3.394-4.132 3.394-2.656 0-3.836-.886-4.131-3.394-.296-1.919.442-3.69 1.77-4.132zm0 11.805c3.837-1.476 7.084.59 6.493 4.132-.295 2.508-1.475 3.394-4.132 3.394-2.656 0-3.836-.886-4.131-3.394-.296-1.919.442-3.69 1.77-4.132zm0 11.805c3.837-1.476 7.084.59 6.493 4.132-.295 2.509-1.475 3.394-4.132 3.394-2.656 0-3.836-.885-4.131-3.394-.296-1.918.442-3.69 1.77-4.132zm0 11.806c3.837-1.476 7.084.59 6.493 4.131-.295 2.509-1.475 3.394-4.132 3.394-2.656 0-3.836-.885-4.131-3.394-.296-1.918.442-3.69 1.77-4.132v.001zm0 33.94c3.837-1.477 7.084.59 6.493 4.13-.295 2.51-1.475 3.395-4.132 3.395-2.656 0-3.836-.886-4.131-3.394-.296-1.918.442-3.69 1.77-4.132v.001zm0 11.804c3.837-1.475 7.084.59 6.493 4.132-.295 2.509-1.475 3.394-4.132 3.394-2.656 0-3.836-.885-4.131-3.394-.296-1.918.442-3.69 1.77-4.132zm0 22.135c3.837-1.476 7.084.59 6.493 4.132-.295 2.508-1.475 3.394-4.132 3.394-2.656 0-3.836-.886-4.131-3.394-.296-1.919.442-3.69 1.77-4.132zm0 11.805c3.837-1.476 7.084.59 6.493 4.132-.295 2.508-1.475 3.394-4.132 3.394-2.656 0-3.836-.886-4.131-3.394-.296-1.919.442-3.69 1.77-4.132zM62.14 109.639c3.836-1.476 7.083.59 6.492 4.132-.295 2.508-1.475 3.394-4.131 3.394-2.657 0-3.837-.886-4.132-3.394-.295-1.919.442-3.69 1.77-4.132h.001zm0 23.61c3.836-1.476 7.083.59 6.492 4.132-.295 2.508-1.475 3.394-4.131 3.394-2.657 0-3.837-.886-4.132-3.394-.295-1.918.442-3.69 1.77-4.132h.001zm0 33.94c3.836-1.476 7.083.59 6.492 4.132-.295 2.508-1.475 3.394-4.131 3.394-2.657 0-3.837-.886-4.132-3.394-.295-1.919.442-3.69 1.77-4.132h.001zm0 23.611c3.836-1.476 7.083.59 6.492 4.131-.295 2.509-1.475 3.394-4.131 3.394-2.657 0-3.837-.885-4.132-3.394-.295-1.918.442-3.69 1.77-4.132l.001.001zm0 45.744c3.836-1.476 7.083.59 6.492 4.132-.295 2.509-1.475 3.394-4.131 3.394-2.657 0-3.837-.885-4.132-3.394-.295-1.918.442-3.69 1.77-4.132h.001zm0 11.806c3.836-1.476 7.083.59 6.492 4.131-.295 2.509-1.475 3.394-4.131 3.394-2.657 0-3.837-.885-4.132-3.394-.295-1.918.442-3.69 1.77-4.132l.001.001zm0 10.329c3.836-1.476 7.083.59 6.492 4.132-.295 2.508-1.475 3.394-4.131 3.394-2.657 0-3.837-.886-4.132-3.394-.295-1.919.442-3.69 1.77-4.132h.001zm0 11.805c3.836-1.476 7.083.59 6.492 4.132-.295 2.508-1.475 3.394-4.131 3.394-2.657 0-3.837-.886-4.132-3.394-.295-1.919.442-3.69 1.77-4.132h.001zm0 35.416c3.836-1.476 7.083.59 6.492 4.131-.295 2.509-1.475 3.394-4.131 3.394-2.657 0-3.837-.885-4.132-3.394-.295-1.918.442-3.689 1.77-4.132l.001.001zm11.805-196.261c3.836-1.476 7.083.59 6.493 4.132-.296 2.508-1.476 3.394-4.132 3.394-2.656 0-3.837-.886-4.132-3.394-.295-1.919.443-3.69 1.77-4.132h.001zm0 11.805c3.836-1.476 7.083.59 6.493 4.132-.296 2.508-1.476 3.394-4.132 3.394-2.656 0-3.837-.886-4.132-3.394-.295-1.919.443-3.69 1.77-4.132h.001zm0 33.94c3.836-1.476 7.083.59 6.493 4.132-.296 2.508-1.476 3.393-4.132 3.393-2.656 0-3.837-.885-4.132-3.393-.295-1.919.443-3.69 1.77-4.132h.001zm0 35.416c3.836-1.476 7.083.59 6.493 4.131-.296 2.509-1.476 3.394-4.132 3.394-2.656 0-3.837-.885-4.132-3.394-.295-1.918.443-3.69 1.77-4.132l.001.001zm0 11.804c3.836-1.475 7.083.59 6.493 4.132-.296 2.509-1.476 3.394-4.132 3.394-2.656 0-3.837-.885-4.132-3.394-.295-1.918.443-3.689 1.77-4.132h.001zm0 45.746c3.836-1.476 7.083.59 6.493 4.131-.296 2.509-1.476 3.394-4.132 3.394-2.656 0-3.837-.885-4.132-3.394-.295-1.918.443-3.69 1.77-4.132l.001.001zm0 22.134c3.836-1.476 7.083.59 6.493 4.132-.296 2.508-1.476 3.394-4.132 3.394-2.656 0-3.837-.886-4.132-3.394-.295-1.919.443-3.69 1.77-4.132h.001zm0 11.806c3.836-1.477 7.083.59 6.493 4.13-.296 2.51-1.476 3.395-4.132 3.395-2.656 0-3.837-.886-4.132-3.394-.295-1.918.443-3.69 1.77-4.132l.001.001zm0 11.804c3.836-1.475 7.083.59 6.493 4.132-.296 2.509-1.476 3.394-4.132 3.394-2.656 0-3.837-.885-4.132-3.394-.295-1.918.443-3.69 1.77-4.132h.001zm0 11.806c3.836-1.476 7.083.59 6.493 4.131-.296 2.509-1.476 3.394-4.132 3.394-2.656 0-3.837-.885-4.132-3.394-.295-1.918.443-3.689 1.77-4.132l.001.001zm0 10.329c3.836-1.476 7.083.59 6.493 4.132-.296 2.508-1.476 3.394-4.132 3.394-2.656 0-3.837-.886-4.132-3.394-.295-1.919.443-3.69 1.77-4.132h.001zm0 23.611c3.836-1.476 7.083.59 6.493 4.131-.296 2.509-1.476 3.394-4.132 3.394-2.656 0-3.837-.885-4.132-3.394-.295-1.918.443-3.69 1.77-4.132l.001.001zM85.75 109.639c3.837-1.476 7.083.59 6.493 4.132-.295 2.508-1.476 3.394-4.132 3.394-2.656 0-3.837-.886-4.132-3.394-.295-1.919.443-3.69 1.77-4.132h.001zm0 23.61c3.837-1.476 7.083.59 6.493 4.132-.295 2.508-1.476 3.394-4.132 3.394-2.656 0-3.837-.886-4.132-3.394-.295-1.918.443-3.69 1.77-4.132h.001zm0 22.135c3.837-1.476 7.083.59 6.493 4.132-.295 2.508-1.476 3.393-4.132 3.393-2.656 0-3.837-.885-4.132-3.393-.295-1.919.443-3.69 1.77-4.132h.001zm0 23.61c3.837-1.476 7.083.59 6.493 4.132-.295 2.508-1.476 3.394-4.132 3.394-2.656 0-3.837-.886-4.132-3.394-.295-1.919.443-3.69 1.77-4.132h.001zm0 23.61c3.837-1.475 7.083.59 6.493 4.132-.295 2.509-1.476 3.394-4.132 3.394-2.656 0-3.837-.885-4.132-3.394-.295-1.918.443-3.689 1.77-4.132h.001zm0 22.135c3.837-1.476 7.083.59 6.493 4.132-.295 2.508-1.476 3.394-4.132 3.394-2.656 0-3.837-.886-4.132-3.394-.295-1.919.443-3.69 1.77-4.132h.001zm0 23.611c3.837-1.476 7.083.59 6.493 4.131-.295 2.509-1.476 3.394-4.132 3.394-2.656 0-3.837-.885-4.132-3.394-.295-1.918.443-3.69 1.77-4.132l.001.001zm0 22.134c3.837-1.476 7.083.59 6.493 4.132-.295 2.508-1.476 3.394-4.132 3.394-2.656 0-3.837-.886-4.132-3.394-.295-1.919.443-3.69 1.77-4.132h.001zm0 23.61c3.837-1.475 7.083.59 6.493 4.132-.295 2.509-1.476 3.394-4.132 3.394-2.656 0-3.837-.885-4.132-3.394-.295-1.918.443-3.69 1.77-4.132h.001zm0 22.135c3.837-1.476 7.083.59 6.493 4.132-.295 2.508-1.476 3.394-4.132 3.394-2.656 0-3.837-.886-4.132-3.394-.295-1.919.443-3.69 1.77-4.132h.001zm0 23.611c3.837-1.476 7.083.59 6.493 4.131-.295 2.509-1.476 3.394-4.132 3.394-2.656 0-3.837-.885-4.132-3.394-.295-1.918.443-3.69 1.77-4.132l.001.001zm10.33-194.786c3.836-1.475 7.082.59 6.492 4.132-.295 2.509-1.475 3.394-4.132 3.394-2.656 0-3.836-.885-4.131-3.394-.296-1.918.442-3.69 1.77-4.132h.001zm0 10.33c3.836-1.476 7.082.59 6.492 4.132-.295 2.508-1.475 3.393-4.132 3.393-2.656 0-3.836-.885-4.131-3.393-.296-1.919.442-3.69 1.77-4.132h.001zm0 11.805c3.836-1.476 7.082.59 6.492 4.132-.295 2.508-1.475 3.394-4.132 3.394-2.656 0-3.836-.886-4.131-3.394-.296-1.919.442-3.69 1.77-4.132h.001zm0 35.415c3.836-1.475 7.082.59 6.492 4.132-.295 2.509-1.475 3.394-4.132 3.394-2.656 0-3.836-.885-4.131-3.394-.296-1.918.442-3.689 1.77-4.132h.001zm0 10.33c3.836-1.476 7.082.59 6.492 4.132-.295 2.508-1.475 3.394-4.132 3.394-2.656 0-3.836-.886-4.131-3.394-.296-1.919.442-3.69 1.77-4.132h.001zm0 35.416c3.836-1.476 7.082.59 6.492 4.131-.295 2.509-1.475 3.394-4.132 3.394-2.656 0-3.836-.885-4.131-3.394-.296-1.918.442-3.69 1.77-4.132l.001.001zm0 10.329c3.836-1.476 7.082.59 6.492 4.132-.295 2.508-1.475 3.394-4.132 3.394-2.656 0-3.836-.886-4.131-3.394-.296-1.919.442-3.69 1.77-4.132h.001zm0 11.805c3.836-1.476 7.082.59 6.492 4.132-.295 2.508-1.475 3.394-4.132 3.394-2.656 0-3.836-.886-4.131-3.394-.296-1.919.442-3.69 1.77-4.132h.001zm0 11.806c3.836-1.477 7.082.59 6.492 4.13-.295 2.51-1.475 3.395-4.132 3.395-2.656 0-3.836-.886-4.131-3.394-.296-1.918.442-3.69 1.77-4.132l.001.001zm0 23.61c3.836-1.476 7.082.59 6.492 4.13-.295 2.51-1.475 3.395-4.132 3.395-2.656 0-3.836-.885-4.131-3.394-.296-1.918.442-3.69 1.77-4.132l.001.001zm11.805-275.946c3.836-1.476 7.083.59 6.492 4.132-.295 2.508-1.475 3.394-4.131 3.394-2.657 0-3.837-.886-4.132-3.394-.295-1.919.442-3.69 1.77-4.132h.001zm0 11.806c3.836-1.476 7.083.59 6.492 4.13-.295 2.51-1.475 3.395-4.131 3.395-2.657 0-3.837-.885-4.132-3.394-.295-1.918.442-3.69 1.77-4.132l.001.001zm0 10.329c3.836-1.476 7.083.59 6.492 4.131-.295 2.509-1.475 3.394-4.131 3.394-2.657 0-3.837-.885-4.132-3.394-.295-1.918.442-3.689 1.77-4.131h.001zm0 11.805c3.836-1.476 7.083.59 6.492 4.132-.295 2.508-1.475 3.394-4.131 3.394-2.657 0-3.837-.886-4.132-3.394-.295-1.919.442-3.69 1.77-4.132h.001zm0 11.805c3.836-1.476 7.083.59 6.492 4.132-.295 2.508-1.475 3.394-4.131 3.394-2.657 0-3.837-.886-4.132-3.394-.295-1.919.442-3.69 1.77-4.132h.001zm0 11.805c3.836-1.476 7.083.59 6.492 4.132-.295 2.508-1.475 3.394-4.131 3.394-2.657 0-3.837-.886-4.132-3.394-.295-1.918.442-3.69 1.77-4.132h.001zm0 10.33c3.836-1.476 7.083.59 6.492 4.131-.295 2.509-1.475 3.394-4.131 3.394-2.657 0-3.837-.885-4.132-3.394-.295-1.918.442-3.689 1.77-4.131h.001zm0 35.415c3.836-1.476 7.083.59 6.492 4.132-.295 2.508-1.475 3.394-4.131 3.394-2.657 0-3.837-.886-4.132-3.394-.295-1.918.442-3.69 1.77-4.132h.001zm0 45.745c3.836-1.476 7.083.59 6.492 4.132-.295 2.508-1.475 3.394-4.131 3.394-2.657 0-3.837-.886-4.132-3.394-.295-1.919.442-3.69 1.77-4.132h.001zm0 11.806c3.836-1.476 7.083.59 6.492 4.131-.295 2.509-1.475 3.394-4.131 3.394-2.657 0-3.837-.885-4.132-3.394-.295-1.918.442-3.69 1.77-4.132l.001.001zm0 11.804c3.836-1.475 7.083.59 6.492 4.132-.295 2.509-1.475 3.394-4.131 3.394-2.657 0-3.837-.885-4.132-3.394-.295-1.918.442-3.689 1.77-4.132h.001zm0 33.94c3.836-1.476 7.083.59 6.492 4.132-.295 2.509-1.475 3.394-4.131 3.394-2.657 0-3.837-.885-4.132-3.394-.295-1.918.442-3.69 1.77-4.132h.001zm0 11.806c3.836-1.476 7.083.59 6.492 4.131-.295 2.509-1.475 3.394-4.131 3.394-2.657 0-3.837-.885-4.132-3.394-.295-1.918.442-3.69 1.77-4.132l.001.001zm0 33.94c3.836-1.477 7.083.59 6.492 4.13-.295 2.51-1.475 3.395-4.131 3.395-2.657 0-3.837-.886-4.132-3.394-.295-1.918.442-3.69 1.77-4.132l.001.001zm0 33.939c3.836-1.476 7.083.59 6.492 4.132-.295 2.508-1.475 3.394-4.131 3.394-2.657 0-3.837-.886-4.132-3.394-.295-1.919.442-3.69 1.77-4.132h.001zm0 11.805c3.836-1.476 7.083.59 6.492 4.132-.295 2.508-1.475 3.394-4.131 3.394-2.657 0-3.837-.886-4.132-3.394-.295-1.919.442-3.69 1.77-4.132h.001zm0 11.806c3.836-1.476 7.083.59 6.492 4.131-.295 2.509-1.475 3.394-4.131 3.394-2.657 0-3.837-.885-4.132-3.394-.295-1.918.442-3.69 1.77-4.132l.001.001zm0 33.939c3.836-1.476 7.083.59 6.492 4.132-.295 2.508-1.475 3.394-4.131 3.394-2.657 0-3.837-.886-4.132-3.394-.295-1.919.442-3.69 1.77-4.132h.001zm0 11.805c3.836-1.476 7.083.59 6.492 4.132-.295 2.509-1.475 3.394-4.131 3.394-2.657 0-3.837-.885-4.132-3.394-.295-1.918.442-3.69 1.77-4.132h.001zm0 45.746c3.836-1.477 7.083.59 6.492 4.13-.295 2.51-1.475 3.395-4.131 3.395-2.657 0-3.837-.886-4.132-3.394-.295-1.918.442-3.69 1.77-4.132l.001.001zM119.69 18.149c3.836-1.476 7.083.59 6.492 4.132-.59 4.87-7.673 4.87-8.263 0-.295-1.919.443-3.69 1.77-4.132h.001zm0 11.805c3.836-1.476 7.083.59 6.492 4.132-.295 2.508-1.475 3.394-4.131 3.394s-3.837-.886-4.132-3.394c-.295-1.919.443-3.69 1.77-4.132h.001zm0 11.806c3.836-1.476 7.083.59 6.492 4.13-.295 2.51-1.475 3.395-4.131 3.395s-3.837-.885-4.132-3.394c-.295-1.918.443-3.69 1.77-4.132l.001.001zm0 10.329c3.836-1.476 7.083.59 6.492 4.131-.295 2.509-1.475 3.394-4.131 3.394s-3.837-.885-4.132-3.394c-.295-1.918.443-3.689 1.77-4.131h.001zm0 23.61c3.836-1.476 7.083.59 6.492 4.132-.295 2.508-1.475 3.394-4.131 3.394s-3.837-.886-4.132-3.394c-.295-1.919.443-3.69 1.77-4.132h.001zm0 57.55c3.836-1.476 7.083.59 6.492 4.132-.295 2.508-1.475 3.394-4.131 3.394s-3.837-.886-4.132-3.394c-.295-1.918.443-3.69 1.77-4.132h.001zm0 33.94c3.836-1.476 7.083.59 6.492 4.132-.295 2.508-1.475 3.394-4.131 3.394s-3.837-.886-4.132-3.394c-.295-1.919.443-3.69 1.77-4.132h.001zm0 11.805c3.836-1.476 7.083.59 6.492 4.132-.295 2.508-1.475 3.394-4.131 3.394s-3.837-.886-4.132-3.394c-.295-1.919.443-3.69 1.77-4.132h.001zm0 11.806c3.836-1.476 7.083.59 6.492 4.131-.295 2.509-1.475 3.394-4.131 3.394s-3.837-.885-4.132-3.394c-.295-1.918.443-3.69 1.77-4.132l.001.001zm0 11.804c3.836-1.475 7.083.59 6.492 4.132-.295 2.509-1.475 3.394-4.131 3.394s-3.837-.885-4.132-3.394c-.295-1.918.443-3.689 1.77-4.132h.001zm0 22.135c3.836-1.476 7.083.59 6.492 4.132-.295 2.508-1.475 3.394-4.131 3.394s-3.837-.886-4.132-3.394c-.295-1.919.443-3.69 1.77-4.132h.001zm0 11.805c3.836-1.476 7.083.59 6.492 4.132-.295 2.509-1.475 3.394-4.131 3.394s-3.837-.885-4.132-3.394c-.295-1.918.443-3.69 1.77-4.132h.001zm0 11.806c3.836-1.476 7.083.59 6.492 4.131-.295 2.509-1.475 3.394-4.131 3.394s-3.837-.885-4.132-3.394c-.295-1.918.443-3.69 1.77-4.132l.001.001zm0 10.329c3.836-1.476 7.083.59 6.492 4.132-.295 2.508-1.475 3.394-4.131 3.394s-3.837-.886-4.132-3.394c-.295-1.919.443-3.69 1.77-4.132h.001zm0 35.415c3.836-1.475 7.083.59 6.492 4.132-.295 2.509-1.475 3.394-4.131 3.394s-3.837-.885-4.132-3.394c-.295-1.918.443-3.69 1.77-4.132h.001zm0 33.94c3.836-1.476 7.083.59 6.492 4.132-.295 2.508-1.475 3.394-4.131 3.394s-3.837-.886-4.132-3.394c-.295-1.919.443-3.69 1.77-4.132h.001zm0 33.94c3.836-1.476 7.083.59 6.492 4.132-.295 2.508-1.475 3.394-4.131 3.394s-3.837-.886-4.132-3.394c-.295-1.919.443-3.69 1.77-4.132h.001zm0 11.805c3.836-1.476 7.083.59 6.492 4.132-.295 2.508-1.475 3.394-4.131 3.394s-3.837-.886-4.132-3.394c-.295-1.919.443-3.69 1.77-4.132h.001zm0 11.805c3.836-1.476 7.083.59 6.492 4.132-.295 2.509-1.475 3.394-4.131 3.394s-3.837-.885-4.132-3.394c-.295-1.918.443-3.69 1.77-4.132h.001zm0 11.806c3.836-1.476 7.083.59 6.492 4.131-.295 2.509-1.475 3.394-4.131 3.394s-3.837-.885-4.132-3.394c-.295-1.918.443-3.689 1.77-4.132l.001.001zm0 33.94c3.836-1.477 7.083.59 6.492 4.13-.295 2.51-1.475 3.395-4.131 3.395s-3.837-.886-4.132-3.394c-.295-1.918.443-3.69 1.77-4.132h.001zm11.805-389.57c3.836-1.476 7.083.59 6.493 4.13-.295 2.51-1.476 3.395-4.132 3.395-2.656 0-3.837-.885-4.132-3.394-.295-1.918.443-3.69 1.77-4.132l.001.001zm0 10.329c3.836-1.476 7.083.59 6.493 4.131-.295 2.509-1.476 3.394-4.132 3.394-2.656 0-3.837-.885-4.132-3.394-.295-1.918.443-3.689 1.77-4.131h.001zm0 11.805c3.836-1.476 7.083.59 6.493 4.132-.295 2.508-1.476 3.394-4.132 3.394-2.656 0-3.837-.886-4.132-3.394-.295-1.919.443-3.69 1.77-4.132h.001zm0 11.805c3.836-1.476 7.083.59 6.493 4.132-.295 2.508-1.476 3.394-4.132 3.394-2.656 0-3.837-.886-4.132-3.394-.295-1.92.443-3.69 1.77-4.132h.001zm0 11.805c3.836-1.476 7.083.59 6.493 4.132-.295 2.508-1.476 3.394-4.132 3.394-2.656 0-3.837-.886-4.132-3.394-.295-1.918.443-3.69 1.77-4.132h.001zm0 10.33c3.836-1.476 7.083.59 6.493 4.13-.295 2.51-1.476 3.395-4.132 3.395-2.656 0-3.837-.885-4.132-3.394-.295-1.918.443-3.69 1.77-4.131h.001zm0 11.805c3.836-1.476 7.083.59 6.493 4.132-.295 2.508-1.476 3.394-4.132 3.394-2.656 0-3.837-.886-4.132-3.394-.295-1.92.443-3.69 1.77-4.132h.001zm0 11.805c3.836-1.476 7.083.59 6.493 4.132-.295 2.508-1.476 3.394-4.132 3.394-2.656 0-3.837-.886-4.132-3.394-.295-1.919.443-3.69 1.77-4.132h.001zm0 57.55c3.836-1.476 7.083.59 6.493 4.132-.295 2.508-1.476 3.394-4.132 3.394-2.656 0-3.837-.886-4.132-3.394-.295-1.92.443-3.69 1.77-4.132h.001zm0 11.806c3.836-1.476 7.083.59 6.493 4.13-.295 2.51-1.476 3.395-4.132 3.395-2.656 0-3.837-.885-4.132-3.394-.295-1.918.443-3.69 1.77-4.132l.001.001zm0 22.134c3.836-1.476 7.083.59 6.493 4.132-.295 2.508-1.476 3.394-4.132 3.394-2.656 0-3.837-.886-4.132-3.394-.295-1.92.443-3.69 1.77-4.132h.001zm0 23.61c3.836-1.476 7.083.59 6.493 4.132-.295 2.509-1.476 3.394-4.132 3.394-2.656 0-3.837-.885-4.132-3.394-.295-1.918.443-3.69 1.77-4.132h.001zm0 22.135c3.836-1.476 7.083.59 6.493 4.132-.295 2.508-1.476 3.394-4.132 3.394-2.656 0-3.837-.886-4.132-3.394-.295-1.92.443-3.69 1.77-4.132h.001zm0 47.22c3.836-1.475 7.083.59 6.493 4.132-.295 2.509-1.476 3.394-4.132 3.394-2.656 0-3.837-.885-4.132-3.394-.295-1.918.443-3.69 1.77-4.132h.001zm0 22.135c3.836-1.476 7.083.59 6.493 4.132-.295 2.508-1.476 3.394-4.132 3.394-2.656 0-3.837-.886-4.132-3.394-.295-1.92.443-3.69 1.77-4.132h.001zm0 11.806c3.836-1.476 7.083.59 6.493 4.13-.295 2.51-1.476 3.395-4.132 3.395-2.656 0-3.837-.885-4.132-3.394-.295-1.918.443-3.69 1.77-4.132h.001zm0 11.804c3.836-1.475 7.083.59 6.493 4.132-.295 2.509-1.476 3.394-4.132 3.394-2.656 0-3.837-.885-4.132-3.394-.295-1.918.443-3.69 1.77-4.132h.001zm0 10.33c3.836-1.476 7.083.59 6.493 4.132-.295 2.508-1.476 3.394-4.132 3.394-2.656 0-3.837-.886-4.132-3.394-.295-1.919.443-3.69 1.77-4.132h.001zm0 23.61c3.836-1.476 7.083.59 6.493 4.132-.295 2.509-1.476 3.394-4.132 3.394-2.656 0-3.837-.885-4.132-3.394-.295-1.918.443-3.69 1.77-4.132h.001zm0 45.746c3.836-1.477 7.083.59 6.493 4.13-.295 2.51-1.476 3.395-4.132 3.395-2.656 0-3.837-.886-4.132-3.394-.295-1.918.443-3.69 1.77-4.132h.001zM143.3 29.954c3.837-1.476 7.083.59 6.493 4.132-.295 2.508-1.476 3.394-4.132 3.394-2.656 0-3.837-.886-4.132-3.394-.295-1.92.443-3.69 1.77-4.132h.001zm0 11.806c3.837-1.476 7.083.59 6.493 4.13-.295 2.51-1.476 3.395-4.132 3.395-2.656 0-3.837-.885-4.132-3.394-.295-1.918.443-3.69 1.77-4.132h.001zm0 10.329c3.837-1.476 7.083.59 6.493 4.13-.295 2.51-1.476 3.395-4.132 3.395-2.656 0-3.837-.885-4.132-3.394-.295-1.918.443-3.69 1.77-4.131h.001zm0 23.61c3.837-1.476 7.083.59 6.493 4.132-.295 2.508-1.476 3.394-4.132 3.394-2.656 0-3.837-.886-4.132-3.394-.295-1.92.443-3.69 1.77-4.132h.001zm0 22.135c3.837-1.476 7.083.59 6.493 4.13-.295 2.51-1.476 3.395-4.132 3.395-2.656 0-3.837-.885-4.132-3.394-.295-1.918.443-3.69 1.77-4.131h.001zm0 47.22c3.837-1.475 7.083.59 6.493 4.132-.295 2.509-1.476 3.394-4.132 3.394-2.656 0-3.837-.885-4.132-3.394-.295-1.918.443-3.69 1.77-4.132h.001zm0 10.33c3.837-1.476 7.083.59 6.493 4.132-.295 2.508-1.476 3.393-4.132 3.393-2.656 0-3.837-.885-4.132-3.393-.295-1.92.443-3.69 1.77-4.132h.001zm0 11.805c3.837-1.476 7.083.59 6.493 4.132-.295 2.508-1.476 3.394-4.132 3.394-2.656 0-3.837-.886-4.132-3.394-.295-1.92.443-3.69 1.77-4.132h.001zm0 69.355c3.837-1.476 7.083.59 6.493 4.132-.295 2.509-1.476 3.394-4.132 3.394-2.656 0-3.837-.885-4.132-3.394-.295-1.918.443-3.69 1.77-4.132h.001zm0 22.135c3.837-1.476 7.083.59 6.493 4.132-.295 2.508-1.476 3.394-4.132 3.394-2.656 0-3.837-.886-4.132-3.394-.295-1.92.443-3.69 1.77-4.132h.001zm0 11.805c3.837-1.476 7.083.59 6.493 4.132-.295 2.508-1.476 3.394-4.132 3.394-2.656 0-3.837-.886-4.132-3.394-.295-1.919.443-3.69 1.77-4.132h.001zm0 11.806c3.837-1.477 7.083.59 6.493 4.13-.295 2.51-1.476 3.395-4.132 3.395-2.656 0-3.837-.886-4.132-3.394-.295-1.918.443-3.69 1.77-4.132h.001zm0 23.61c3.837-1.476 7.083.59 6.493 4.13-.295 2.51-1.476 3.395-4.132 3.395-2.656 0-3.837-.885-4.132-3.394-.295-1.918.443-3.69 1.77-4.132h.001zm0 22.134c3.837-1.476 7.083.59 6.493 4.132-.295 2.508-1.476 3.394-4.132 3.394-2.656 0-3.837-.886-4.132-3.394-.295-1.92.443-3.69 1.77-4.132h.001zm0 23.61c3.837-1.475 7.083.59 6.493 4.132-.295 2.509-1.476 3.394-4.132 3.394-2.656 0-3.837-.885-4.132-3.394-.295-1.918.443-3.69 1.77-4.132h.001zm0 22.135c3.837-1.476 7.083.59 6.493 4.132-.295 2.508-1.476 3.394-4.132 3.394-2.656 0-3.837-.886-4.132-3.394-.295-1.92.443-3.69 1.77-4.132h.001zm0 11.805c3.837-1.476 7.083.59 6.493 4.132-.295 2.509-1.476 3.394-4.132 3.394-2.656 0-3.837-.885-4.132-3.394-.295-1.918.443-3.69 1.77-4.132h.001zm0 11.806c3.837-1.476 7.083.59 6.493 4.13-.295 2.51-1.476 3.395-4.132 3.395-2.656 0-3.837-.885-4.132-3.394-.295-1.918.443-3.69 1.77-4.132l.001.001zm0 33.94c3.837-1.477 7.083.59 6.493 4.13-.295 2.51-1.476 3.395-4.132 3.395-2.656 0-3.837-.886-4.132-3.394-.295-1.918.443-3.69 1.77-4.132h.001zm10.33-401.376c3.836-1.476 7.083.59 6.492 4.132-.295 2.508-1.475 3.394-4.132 3.394-2.656 0-3.836-.886-4.131-3.394-.295-1.92.442-3.69 1.77-4.132h.001zm0 11.806c3.836-1.476 7.083.59 6.492 4.13-.295 2.51-1.475 3.395-4.132 3.395-2.656 0-3.836-.885-4.131-3.394-.295-1.918.442-3.69 1.77-4.132h.001zm0 10.329c3.836-1.476 7.083.59 6.492 4.13-.295 2.51-1.475 3.395-4.132 3.395-2.656 0-3.836-.885-4.131-3.394-.295-1.918.442-3.69 1.77-4.131h.001zm0 35.415c3.836-1.476 7.083.59 6.492 4.132-.295 2.508-1.475 3.394-4.132 3.394-2.656 0-3.836-.886-4.131-3.394-.295-1.918.442-3.69 1.77-4.132h.001zm0 10.33c3.836-1.476 7.083.59 6.492 4.13-.295 2.51-1.475 3.395-4.132 3.395-2.656 0-3.836-.885-4.131-3.394-.295-1.918.442-3.69 1.77-4.131h.001zm0 23.61c3.836-1.476 7.083.59 6.492 4.132-.295 2.508-1.475 3.394-4.132 3.394-2.656 0-3.836-.886-4.131-3.394-.295-1.92.442-3.69 1.77-4.132h.001zm0 23.61c3.836-1.475 7.083.59 6.492 4.132-.295 2.509-1.475 3.394-4.132 3.394-2.656 0-3.836-.885-4.131-3.394-.295-1.918.442-3.69 1.77-4.132h.001zm0 160.846c3.836-1.476 7.083.59 6.492 4.13-.295 2.51-1.475 3.395-4.132 3.395-2.656 0-3.836-.885-4.131-3.394-.295-1.918.442-3.69 1.77-4.132h.001zm0 10.329c3.836-1.476 7.083.59 6.492 4.132-.295 2.508-1.475 3.394-4.132 3.394-2.656 0-3.836-.886-4.131-3.394-.295-1.92.442-3.69 1.77-4.132h.001zm0 11.805c3.836-1.476 7.083.59 6.492 4.132-.295 2.508-1.475 3.394-4.132 3.394-2.656 0-3.836-.886-4.131-3.394-.295-1.92.442-3.69 1.77-4.132h.001zm0 11.806c3.836-1.476 7.083.59 6.492 4.13-.295 2.51-1.475 3.395-4.132 3.395-2.656 0-3.836-.885-4.131-3.394-.295-1.918.442-3.69 1.77-4.132h.001zm0 11.804c3.836-1.475 7.083.59 6.492 4.132-.295 2.509-1.475 3.394-4.132 3.394-2.656 0-3.836-.885-4.131-3.394-.295-1.918.442-3.69 1.77-4.132h.001zm0 10.33c3.836-1.476 7.083.59 6.492 4.132-.295 2.508-1.475 3.394-4.132 3.394-2.656 0-3.836-.886-4.131-3.394-.295-1.92.442-3.69 1.77-4.132h.001zm0 69.356c3.836-1.477 7.083.59 6.492 4.13-.295 2.51-1.475 3.395-4.132 3.395-2.656 0-3.836-.886-4.131-3.394-.295-1.918.442-3.69 1.77-4.132h.001zm11.805-401.376c3.836-1.476 7.083.59 6.492 4.132-.295 2.508-1.475 3.394-4.131 3.394-2.657 0-3.837-.886-4.132-3.394-.295-1.92.443-3.69 1.77-4.132h.001zm0 22.135c3.836-1.476 7.083.59 6.492 4.13-.295 2.51-1.475 3.395-4.131 3.395-2.657 0-3.837-.885-4.132-3.394-.295-1.918.443-3.69 1.77-4.131h.001zm0 23.61c3.836-1.476 7.083.59 6.492 4.132-.295 2.508-1.475 3.394-4.131 3.394-2.657 0-3.837-.886-4.132-3.394-.295-1.92.443-3.69 1.77-4.132h.001zm0 22.135c3.836-1.476 7.083.59 6.492 4.13-.295 2.51-1.475 3.395-4.131 3.395-2.657 0-3.837-.885-4.132-3.394-.295-1.918.443-3.69 1.77-4.131h.001zm0 35.415c3.836-1.476 7.083.59 6.492 4.132-.295 2.508-1.475 3.394-4.131 3.394-2.657 0-3.837-.886-4.132-3.394-.295-1.918.443-3.69 1.77-4.132h.001zm0 11.805c3.836-1.475 7.083.59 6.492 4.132-.295 2.509-1.475 3.394-4.131 3.394-2.657 0-3.837-.885-4.132-3.394-.295-1.918.443-3.69 1.77-4.132h.001zm0 171.175c3.836-1.476 7.083.59 6.492 4.132-.295 2.508-1.475 3.394-4.131 3.394-2.657 0-3.837-.886-4.132-3.394-.295-1.92.443-3.69 1.77-4.132h.001zm0 11.805c3.836-1.476 7.083.59 6.492 4.132-.295 2.508-1.475 3.394-4.131 3.394-2.657 0-3.837-.886-4.132-3.394-.295-1.92.443-3.69 1.77-4.132h.001zm0 33.94c3.836-1.476 7.083.59 6.492 4.132-.295 2.508-1.475 3.394-4.131 3.394-2.657 0-3.837-.886-4.132-3.394-.295-1.92.443-3.69 1.77-4.132h.001zm0 11.805c3.836-1.476 7.083.59 6.492 4.132-.295 2.508-1.475 3.394-4.131 3.394-2.657 0-3.837-.886-4.132-3.394-.295-1.92.443-3.69 1.77-4.132h.001zm0 11.805c3.836-1.476 7.083.59 6.492 4.132-.295 2.509-1.475 3.394-4.131 3.394-2.657 0-3.837-.885-4.132-3.394-.295-1.918.443-3.69 1.77-4.132h.001zm0 11.806c3.836-1.476 7.083.59 6.492 4.13-.295 2.51-1.475 3.395-4.131 3.395-2.657 0-3.837-.885-4.132-3.394-.295-1.918.443-3.69 1.77-4.132h.001zm0 22.134c3.836-1.476 7.083.59 6.492 4.132-.295 2.508-1.475 3.394-4.131 3.394-2.657 0-3.837-.886-4.132-3.394-.295-1.92.443-3.69 1.77-4.132h.001zm0 11.806c3.836-1.477 7.083.59 6.492 4.13-.295 2.51-1.475 3.395-4.131 3.395-2.657 0-3.837-.886-4.132-3.394-.295-1.918.443-3.69 1.77-4.132h.001zM177.24 29.954c3.836-1.476 7.083.59 6.493 4.132-.296 2.508-1.476 3.394-4.132 3.394-2.656 0-3.837-.886-4.132-3.394-.295-1.92.443-3.69 1.77-4.132h.001zm0 11.806c3.836-1.476 7.083.59 6.493 4.13-.296 2.51-1.476 3.395-4.132 3.395-2.656 0-3.837-.885-4.132-3.394-.295-1.918.443-3.69 1.77-4.132h.001zm0 10.329c3.836-1.476 7.083.59 6.493 4.13-.296 2.51-1.476 3.395-4.132 3.395-2.656 0-3.837-.885-4.132-3.394-.295-1.918.443-3.69 1.77-4.131h.001zm0 11.805c3.836-1.476 7.083.59 6.493 4.132-.296 2.508-1.476 3.394-4.132 3.394-2.656 0-3.837-.886-4.132-3.394-.295-1.92.443-3.69 1.77-4.132h.001zm0 23.61c3.836-1.476 7.083.59 6.493 4.132-.296 2.508-1.476 3.394-4.132 3.394-2.656 0-3.837-.886-4.132-3.394-.295-1.918.443-3.69 1.77-4.132h.001zm0 45.745c3.836-1.476 7.083.59 6.493 4.132-.296 2.508-1.476 3.394-4.132 3.394-2.656 0-3.837-.886-4.132-3.394-.295-1.918.443-3.69 1.77-4.132h.001zm0 11.805c3.836-1.475 7.083.59 6.493 4.132-.296 2.509-1.476 3.394-4.132 3.394-2.656 0-3.837-.885-4.132-3.394-.295-1.918.443-3.69 1.77-4.132h.001zm0 160.846c3.836-1.476 7.083.59 6.493 4.13-.296 2.51-1.476 3.395-4.132 3.395-2.656 0-3.837-.885-4.132-3.394-.295-1.918.443-3.69 1.77-4.132h.001zm0 10.329c3.836-1.476 7.083.59 6.493 4.132-.296 2.508-1.476 3.394-4.132 3.394-2.656 0-3.837-.886-4.132-3.394-.295-1.92.443-3.69 1.77-4.132h.001zm0 11.805c3.836-1.476 7.083.59 6.493 4.132-.296 2.508-1.476 3.394-4.132 3.394-2.656 0-3.837-.886-4.132-3.394-.295-1.92.443-3.69 1.77-4.132h.001zm0 11.806c3.836-1.476 7.083.59 6.493 4.13-.296 2.51-1.476 3.395-4.132 3.395-2.656 0-3.837-.885-4.132-3.394-.295-1.918.443-3.69 1.77-4.132h.001zm0 22.134c3.836-1.476 7.083.59 6.493 4.132-.296 2.508-1.476 3.394-4.132 3.394-2.656 0-3.837-.886-4.132-3.394-.295-1.92.443-3.69 1.77-4.132h.001zm0 23.61c3.836-1.476 7.083.59 6.493 4.132-.296 2.509-1.476 3.394-4.132 3.394-2.656 0-3.837-.885-4.132-3.394-.295-1.918.443-3.69 1.77-4.132h.001zm0 45.746c3.836-1.477 7.083.59 6.493 4.13-.296 2.51-1.476 3.395-4.132 3.395-2.656 0-3.837-.886-4.132-3.394-.295-1.918.443-3.69 1.77-4.132h.001zm11.805-389.57c3.837-1.476 7.083.59 6.493 4.13-.295 2.51-1.476 3.395-4.132 3.395-2.656 0-3.837-.885-4.132-3.394-.295-1.918.443-3.69 1.77-4.132h.001zm0 10.329c3.837-1.476 7.083.59 6.493 4.13-.295 2.51-1.476 3.395-4.132 3.395-2.656 0-3.837-.885-4.132-3.394-.295-1.918.443-3.69 1.77-4.131h.001zm0 45.745c3.837-1.476 7.083.59 6.493 4.13-.295 2.51-1.476 3.395-4.132 3.395-2.656 0-3.837-.885-4.132-3.394-.295-1.918.443-3.69 1.77-4.131h.001zm0 11.805c3.837-1.476 7.083.59 6.493 4.132-.295 2.508-1.476 3.394-4.132 3.394-2.656 0-3.837-.886-4.132-3.394-.295-1.92.443-3.69 1.77-4.132h.001zm0 11.805c3.837-1.476 7.083.59 6.493 4.132-.295 2.508-1.476 3.394-4.132 3.394-2.656 0-3.837-.886-4.132-3.394-.295-1.92.443-3.69 1.77-4.132h.001zm0 11.805c3.837-1.476 7.083.59 6.493 4.132-.295 2.508-1.476 3.394-4.132 3.394-2.656 0-3.837-.886-4.132-3.394-.295-1.918.443-3.69 1.77-4.132h.001zm0 11.805c3.837-1.475 7.083.59 6.493 4.132-.295 2.509-1.476 3.394-4.132 3.394-2.656 0-3.837-.885-4.132-3.394-.295-1.918.443-3.69 1.77-4.132h.001zm0 160.846c3.837-1.476 7.083.59 6.493 4.13-.295 2.51-1.476 3.395-4.132 3.395-2.656 0-3.837-.885-4.132-3.394-.295-1.918.443-3.69 1.77-4.132h.001zm0 22.134c3.837-1.476 7.083.59 6.493 4.132-.295 2.508-1.476 3.394-4.132 3.394-2.656 0-3.837-.886-4.132-3.394-.295-1.92.443-3.69 1.77-4.132h.001zm0 45.745c3.837-1.476 7.083.59 6.493 4.132-.295 2.508-1.476 3.394-4.132 3.394-2.656 0-3.837-.886-4.132-3.394-.295-1.92.443-3.69 1.77-4.132h.001zm0 11.805c3.837-1.476 7.083.59 6.493 4.132-.295 2.509-1.476 3.394-4.132 3.394-2.656 0-3.837-.885-4.132-3.394-.295-1.918.443-3.69 1.77-4.132h.001zm0 23.61c3.837-1.475 7.083.59 6.493 4.132-.295 2.509-1.476 3.394-4.132 3.394-2.656 0-3.837-.885-4.132-3.394-.295-1.918.443-3.69 1.77-4.132h.001zM200.85 52.089c3.837-1.476 7.083.59 6.493 4.13-.295 2.51-1.476 3.395-4.132 3.395-2.656 0-3.837-.885-4.132-3.394-.295-1.918.443-3.69 1.771-4.131zm0 23.61c3.837-1.476 7.083.59 6.493 4.132-.295 2.508-1.476 3.394-4.132 3.394-2.656 0-3.837-.886-4.132-3.394-.295-1.92.443-3.69 1.771-4.132zm0 11.805c3.837-1.476 7.083.59 6.493 4.132-.295 2.508-1.476 3.394-4.132 3.394-2.656 0-3.837-.886-4.132-3.394-.295-1.918.443-3.69 1.771-4.132zm0 22.135c3.837-1.476 7.083.59 6.493 4.132-.295 2.508-1.476 3.394-4.132 3.394-2.656 0-3.837-.886-4.132-3.394-.295-1.92.443-3.69 1.771-4.132zm0 11.805c3.837-1.476 7.083.59 6.493 4.132-.295 2.508-1.476 3.394-4.132 3.394-2.656 0-3.837-.886-4.132-3.394-.295-1.92.443-3.69 1.771-4.132zm0 23.61c3.837-1.475 7.083.59 6.493 4.132-.295 2.509-1.476 3.394-4.132 3.394-2.656 0-3.837-.885-4.132-3.394-.295-1.918.443-3.69 1.771-4.132zm0 171.175c3.837-1.476 7.083.59 6.493 4.132-.295 2.508-1.476 3.394-4.132 3.394-2.656 0-3.837-.886-4.132-3.394-.295-1.92.443-3.69 1.771-4.132zm0 11.805c3.837-1.476 7.083.59 6.493 4.132-.295 2.508-1.476 3.394-4.132 3.394-2.656 0-3.837-.886-4.132-3.394-.295-1.92.443-3.69 1.771-4.132zm0 11.806c3.837-1.476 7.083.59 6.493 4.13-.295 2.51-1.476 3.395-4.132 3.395-2.656 0-3.837-.885-4.132-3.394-.295-1.918.443-3.69 1.771-4.132h0zm0 11.804c3.837-1.475 7.083.59 6.493 4.132-.295 2.509-1.476 3.394-4.132 3.394-2.656 0-3.837-.885-4.132-3.394-.295-1.918.443-3.69 1.771-4.132zm0 10.33c3.837-1.476 7.083.59 6.493 4.132-.295 2.508-1.476 3.394-4.132 3.394-2.656 0-3.837-.886-4.132-3.394-.295-1.92.443-3.69 1.771-4.132zm0 11.805c3.837-1.476 7.083.59 6.493 4.132-.295 2.508-1.476 3.394-4.132 3.394-2.656 0-3.837-.886-4.132-3.394-.295-1.92.443-3.69 1.771-4.132zm0 11.805c3.837-1.476 7.083.59 6.493 4.132-.295 2.509-1.476 3.394-4.132 3.394-2.656 0-3.837-.885-4.132-3.394-.295-1.918.443-3.69 1.771-4.132zm0 11.806c3.837-1.476 7.083.59 6.493 4.13-.295 2.51-1.476 3.395-4.132 3.395-2.656 0-3.837-.885-4.132-3.394-.295-1.918.443-3.69 1.771-4.132h0zm0 22.134c3.837-1.476 7.083.59 6.493 4.132-.295 2.508-1.476 3.394-4.132 3.394-2.656 0-3.837-.886-4.132-3.394-.295-1.92.443-3.69 1.771-4.132zm0 11.806c3.837-1.477 7.083.59 6.493 4.13-.295 2.51-1.476 3.395-4.132 3.395-2.656 0-3.837-.886-4.132-3.394-.295-1.918.443-3.69 1.771-4.132h0zm10.33-413.181c3.836-1.476 7.083.59 6.492 4.132-.59 4.87-7.673 4.87-8.263 0-.295-1.92.442-3.69 1.77-4.132h.001zm0 11.805c3.836-1.476 7.083.59 6.492 4.132-.295 2.508-1.475 3.394-4.131 3.394-2.657 0-3.837-.886-4.132-3.394-.295-1.92.442-3.69 1.77-4.132h.001zm0 45.745c3.836-1.476 7.083.59 6.492 4.132-.295 2.508-1.475 3.394-4.131 3.394-2.657 0-3.837-.886-4.132-3.394-.295-1.92.442-3.69 1.77-4.132h.001zm0 33.94c3.836-1.476 7.083.59 6.492 4.132-.295 2.508-1.475 3.394-4.131 3.394-2.657 0-3.837-.886-4.132-3.394-.295-1.92.442-3.69 1.77-4.132h.001zm0 23.61c3.836-1.476 7.083.59 6.492 4.132-.295 2.508-1.475 3.394-4.131 3.394-2.657 0-3.837-.886-4.132-3.394-.295-1.918.442-3.69 1.77-4.132h.001zm0 194.785c3.836-1.476 7.083.59 6.492 4.132-.295 2.508-1.475 3.394-4.131 3.394-2.657 0-3.837-.886-4.132-3.394-.295-1.92.442-3.69 1.77-4.132h.001zm0 11.806c3.836-1.476 7.083.59 6.492 4.13-.295 2.51-1.475 3.395-4.131 3.395-2.657 0-3.837-.885-4.132-3.394-.295-1.918.442-3.69 1.77-4.132h.001zm0 22.134c3.836-1.476 7.083.59 6.492 4.132-.295 2.508-1.475 3.394-4.131 3.394-2.657 0-3.837-.886-4.132-3.394-.295-1.92.442-3.69 1.77-4.132h.001zm0 11.805c3.836-1.476 7.083.59 6.492 4.132-.295 2.508-1.475 3.394-4.131 3.394-2.657 0-3.837-.886-4.132-3.394-.295-1.92.442-3.69 1.77-4.132h.001zm0 11.805c3.836-1.476 7.083.59 6.492 4.132-.295 2.509-1.475 3.394-4.131 3.394-2.657 0-3.837-.885-4.132-3.394-.295-1.918.442-3.69 1.77-4.132h.001zm0 45.746c3.836-1.477 7.083.59 6.492 4.13-.295 2.51-1.475 3.395-4.131 3.395-2.657 0-3.837-.886-4.132-3.394-.295-1.918.442-3.69 1.77-4.132h.001zm11.805-413.181c3.836-1.476 7.083.59 6.493 4.132-.59 4.87-7.674 4.87-8.264 0-.295-1.92.443-3.69 1.77-4.132h.001zm0 11.805c3.836-1.476 7.083.59 6.493 4.132-.296 2.508-1.476 3.394-4.132 3.394-2.656 0-3.837-.886-4.132-3.394-.295-1.92.443-3.69 1.77-4.132h.001zm0 22.135c3.836-1.476 7.083.59 6.493 4.13-.296 2.51-1.476 3.395-4.132 3.395-2.656 0-3.837-.885-4.132-3.394-.295-1.918.443-3.69 1.77-4.131h.001zm0 23.61c3.836-1.476 7.083.59 6.493 4.132-.296 2.508-1.476 3.394-4.132 3.394-2.656 0-3.837-.886-4.132-3.394-.295-1.92.443-3.69 1.77-4.132h.001zm0 11.805c3.836-1.476 7.083.59 6.493 4.132-.296 2.508-1.476 3.394-4.132 3.394-2.656 0-3.837-.886-4.132-3.394-.295-1.918.443-3.69 1.77-4.132h.001zm0 10.33c3.836-1.476 7.083.59 6.493 4.13-.296 2.51-1.476 3.395-4.132 3.395-2.656 0-3.837-.885-4.132-3.394-.295-1.918.443-3.69 1.77-4.131h.001zm0 11.805c3.836-1.476 7.083.59 6.493 4.132-.296 2.508-1.476 3.394-4.132 3.394-2.656 0-3.837-.886-4.132-3.394-.295-1.92.443-3.69 1.77-4.132h.001zm0 11.805c3.836-1.476 7.083.59 6.493 4.132-.296 2.508-1.476 3.394-4.132 3.394-2.656 0-3.837-.886-4.132-3.394-.295-1.92.443-3.69 1.77-4.132h.001zm0 11.805c3.836-1.476 7.083.59 6.493 4.132-.296 2.508-1.476 3.394-4.132 3.394-2.656 0-3.837-.886-4.132-3.394-.295-1.918.443-3.69 1.77-4.132h.001zm0 194.785c3.836-1.476 7.083.59 6.493 4.132-.296 2.508-1.476 3.394-4.132 3.394-2.656 0-3.837-.886-4.132-3.394-.295-1.92.443-3.69 1.77-4.132h.001zm0 11.806c3.836-1.476 7.083.59 6.493 4.13-.296 2.51-1.476 3.395-4.132 3.395-2.656 0-3.837-.885-4.132-3.394-.295-1.918.443-3.69 1.77-4.132h.001zm0 22.134c3.836-1.476 7.083.59 6.493 4.132-.296 2.508-1.476 3.394-4.132 3.394-2.656 0-3.837-.886-4.132-3.394-.295-1.92.443-3.69 1.77-4.132h.001zm0 23.61c3.836-1.476 7.083.59 6.493 4.132-.296 2.509-1.476 3.394-4.132 3.394-2.656 0-3.837-.885-4.132-3.394-.295-1.918.443-3.69 1.77-4.132h.001zm0 23.61c3.836-1.475 7.083.59 6.493 4.132-.296 2.509-1.476 3.394-4.132 3.394-2.656 0-3.837-.885-4.132-3.394-.295-1.918.443-3.69 1.77-4.132h.001zm0 10.33c3.836-1.476 7.083.59 6.493 4.132-.296 2.508-1.476 3.394-4.132 3.394-2.656 0-3.837-.886-4.132-3.394-.295-1.92.443-3.69 1.77-4.132h.001zm0 11.806c3.836-1.477 7.083.59 6.493 4.13-.296 2.51-1.476 3.395-4.132 3.395-2.656 0-3.837-.886-4.132-3.394-.295-1.918.443-3.69 1.77-4.132h.001zM234.79 41.76c3.837-1.476 7.083.59 6.493 4.13-.295 2.51-1.476 3.395-4.132 3.395-2.656 0-3.837-.885-4.132-3.394-.295-1.918.443-3.69 1.77-4.132h.001zm0 10.329c3.837-1.476 7.083.59 6.493 4.13-.295 2.51-1.476 3.395-4.132 3.395-2.656 0-3.837-.885-4.132-3.394-.295-1.918.443-3.69 1.77-4.131h.001zm0 11.805c3.837-1.476 7.083.59 6.493 4.132-.295 2.508-1.476 3.394-4.132 3.394-2.656 0-3.837-.886-4.132-3.394-.295-1.92.443-3.69 1.77-4.132h.001zm0 11.805c3.837-1.476 7.083.59 6.493 4.132-.295 2.508-1.476 3.394-4.132 3.394-2.656 0-3.837-.886-4.132-3.394-.295-1.92.443-3.69 1.77-4.132h.001zm0 22.135c3.837-1.476 7.083.59 6.493 4.13-.295 2.51-1.476 3.395-4.132 3.395-2.656 0-3.837-.885-4.132-3.394-.295-1.918.443-3.69 1.77-4.131h.001zm0 11.805c3.837-1.476 7.083.59 6.493 4.132-.295 2.508-1.476 3.394-4.132 3.394-2.656 0-3.837-.886-4.132-3.394-.295-1.92.443-3.69 1.77-4.132h.001zm0 23.61c3.837-1.476 7.083.59 6.493 4.132-.295 2.508-1.476 3.394-4.132 3.394-2.656 0-3.837-.886-4.132-3.394-.295-1.918.443-3.69 1.77-4.132h.001zm0 11.805c3.837-1.475 7.083.59 6.493 4.132-.295 2.509-1.476 3.394-4.132 3.394-2.656 0-3.837-.885-4.132-3.394-.295-1.918.443-3.69 1.77-4.132h.001zm0 171.175c3.837-1.476 7.083.59 6.493 4.132-.295 2.508-1.476 3.394-4.132 3.394-2.656 0-3.837-.886-4.132-3.394-.295-1.92.443-3.69 1.77-4.132h.001zm0 23.61c3.837-1.475 7.083.59 6.493 4.132-.295 2.509-1.476 3.394-4.132 3.394-2.656 0-3.837-.885-4.132-3.394-.295-1.918.443-3.69 1.77-4.132h.001zm0 11.805c3.837-1.475 7.083.59 6.493 4.132-.295 2.509-1.476 3.394-4.132 3.394-2.656 0-3.837-.885-4.132-3.394-.295-1.918.443-3.69 1.77-4.132h.001zm0 10.33c3.837-1.476 7.083.59 6.493 4.132-.295 2.508-1.476 3.394-4.132 3.394-2.656 0-3.837-.886-4.132-3.394-.295-1.92.443-3.69 1.77-4.132h.001zm0 35.416c3.837-1.476 7.083.59 6.493 4.13-.295 2.51-1.476 3.395-4.132 3.395-2.656 0-3.837-.885-4.132-3.394-.295-1.918.443-3.69 1.77-4.132h.001zm11.805-345.301c3.837-1.476 7.083.59 6.493 4.13-.295 2.51-1.476 3.395-4.132 3.395-2.656 0-3.837-.885-4.132-3.394-.295-1.918.443-3.69 1.771-4.131zm0 35.415c3.837-1.476 7.083.59 6.493 4.132-.295 2.508-1.476 3.394-4.132 3.394-2.656 0-3.837-.886-4.132-3.394-.295-1.918.443-3.69 1.771-4.132zm0 10.33c3.837-1.476 7.083.59 6.493 4.13-.295 2.51-1.476 3.395-4.132 3.395-2.656 0-3.837-.885-4.132-3.394-.295-1.918.443-3.69 1.771-4.131zm0 11.805c3.837-1.476 7.083.59 6.493 4.132-.295 2.508-1.476 3.394-4.132 3.394-2.656 0-3.837-.886-4.132-3.394-.295-1.92.443-3.69 1.771-4.132zm0 23.61c3.837-1.476 7.083.59 6.493 4.132-.295 2.508-1.476 3.394-4.132 3.394-2.656 0-3.837-.886-4.132-3.394-.295-1.918.443-3.69 1.771-4.132zm0 194.785c3.837-1.476 7.083.59 6.493 4.132-.295 2.508-1.476 3.394-4.132 3.394-2.656 0-3.837-.886-4.132-3.394-.295-1.92.443-3.69 1.771-4.132zm0 11.806c3.837-1.476 7.083.59 6.493 4.13-.295 2.51-1.476 3.395-4.132 3.395-2.656 0-3.837-.885-4.132-3.394-.295-1.918.443-3.69 1.771-4.132h0zm0 22.134c3.837-1.476 7.083.59 6.493 4.132-.295 2.508-1.476 3.394-4.132 3.394-2.656 0-3.837-.886-4.132-3.394-.295-1.92.443-3.69 1.771-4.132zm0 35.416c3.837-1.476 7.083.59 6.493 4.13-.295 2.51-1.476 3.395-4.132 3.395-2.656 0-3.837-.885-4.132-3.394-.295-1.918.443-3.69 1.771-4.132h0zm10.33-379.241c3.836-1.476 7.083.59 6.492 4.132-.59 4.87-7.673 4.87-8.263 0-.295-1.92.442-3.69 1.77-4.132h.001zm0 23.61c3.836-1.475 7.083.59 6.492 4.13-.295 2.51-1.475 3.396-4.131 3.396-2.657 0-3.837-.885-4.132-3.394-.295-1.918.442-3.69 1.77-4.132h.001zm0 22.135c3.836-1.476 7.083.59 6.492 4.132-.295 2.508-1.475 3.394-4.131 3.394-2.657 0-3.837-.886-4.132-3.394-.295-1.92.442-3.69 1.77-4.132h.001zm0 11.805c3.836-1.476 7.083.59 6.492 4.132-.295 2.508-1.475 3.394-4.131 3.394-2.657 0-3.837-.886-4.132-3.394-.295-1.92.442-3.69 1.77-4.132h.001zm0 33.94c3.836-1.476 7.083.59 6.492 4.132-.295 2.508-1.475 3.394-4.131 3.394-2.657 0-3.837-.886-4.132-3.394-.295-1.92.442-3.69 1.77-4.132h.001zm0 11.805c3.836-1.476 7.083.59 6.492 4.132-.295 2.508-1.475 3.394-4.131 3.394-2.657 0-3.837-.886-4.132-3.394-.295-1.92.442-3.69 1.77-4.132h.001zm0 23.61c3.836-1.475 7.083.59 6.492 4.132-.295 2.509-1.475 3.394-4.131 3.394-2.657 0-3.837-.885-4.132-3.394-.295-1.918.442-3.69 1.77-4.132h.001zm0 171.175c3.836-1.476 7.083.59 6.492 4.132-.295 2.508-1.475 3.394-4.131 3.394-2.657 0-3.837-.886-4.132-3.394-.295-1.92.442-3.69 1.77-4.132h.001zm0 35.415c3.836-1.475 7.083.59 6.492 4.132-.295 2.509-1.475 3.394-4.131 3.394-2.657 0-3.837-.885-4.132-3.394-.295-1.918.442-3.69 1.77-4.132h.001zm0 10.33c3.836-1.476 7.083.59 6.492 4.132-.295 2.508-1.475 3.394-4.131 3.394-2.657 0-3.837-.886-4.132-3.394-.295-1.92.442-3.69 1.77-4.132h.001zm0 11.805c3.836-1.476 7.083.59 6.492 4.132-.295 2.508-1.475 3.394-4.131 3.394-2.657 0-3.837-.886-4.132-3.394-.295-1.92.442-3.69 1.77-4.132h.001zm0 35.415c3.836-1.475 7.083.59 6.492 4.132-.295 2.509-1.475 3.394-4.131 3.394-2.657 0-3.837-.885-4.132-3.394-.295-1.918.442-3.69 1.77-4.132h.001zm0 22.136c3.836-1.477 7.083.59 6.492 4.13-.295 2.51-1.475 3.395-4.131 3.395-2.657 0-3.837-.886-4.132-3.394-.295-1.918.442-3.69 1.77-4.132h.001zM268.73 18.149c3.836-1.476 7.083.59 6.493 4.132-.59 4.87-7.674 4.87-8.264 0-.295-1.92.443-3.69 1.77-4.132h.001zm0 33.94c3.836-1.476 7.083.59 6.493 4.13-.296 2.51-1.476 3.395-4.132 3.395-2.656 0-3.837-.885-4.132-3.394-.295-1.918.443-3.69 1.77-4.131h.001zm0 23.61c3.836-1.476 7.083.59 6.493 4.132-.296 2.508-1.476 3.394-4.132 3.394-2.656 0-3.837-.886-4.132-3.394-.295-1.92.443-3.69 1.77-4.132h.001zm0 11.805c3.836-1.476 7.083.59 6.493 4.132-.296 2.508-1.476 3.394-4.132 3.394-2.656 0-3.837-.886-4.132-3.394-.295-1.918.443-3.69 1.77-4.132h.001zm0 22.135c3.836-1.476 7.083.59 6.493 4.132-.296 2.508-1.476 3.394-4.132 3.394-2.656 0-3.837-.886-4.132-3.394-.295-1.92.443-3.69 1.77-4.132h.001zm0 23.61c3.836-1.476 7.083.59 6.493 4.132-.296 2.508-1.476 3.394-4.132 3.394-2.656 0-3.837-.886-4.132-3.394-.295-1.918.443-3.69 1.77-4.132h.001zm0 194.785c3.836-1.476 7.083.59 6.493 4.132-.296 2.508-1.476 3.394-4.132 3.394-2.656 0-3.837-.886-4.132-3.394-.295-1.92.443-3.69 1.77-4.132h.001zm0 11.806c3.836-1.476 7.083.59 6.493 4.13-.296 2.51-1.476 3.395-4.132 3.395-2.656 0-3.837-.885-4.132-3.394-.295-1.918.443-3.69 1.77-4.132h.001zm0 22.134c3.836-1.476 7.083.59 6.493 4.132-.296 2.508-1.476 3.394-4.132 3.394-2.656 0-3.837-.886-4.132-3.394-.295-1.92.443-3.69 1.77-4.132h.001zm0 11.805c3.836-1.476 7.083.59 6.493 4.132-.296 2.508-1.476 3.394-4.132 3.394-2.656 0-3.837-.886-4.132-3.394-.295-1.92.443-3.69 1.77-4.132h.001zm0 11.805c3.836-1.476 7.083.59 6.493 4.132-.296 2.509-1.476 3.394-4.132 3.394-2.656 0-3.837-.885-4.132-3.394-.295-1.918.443-3.69 1.77-4.132h.001zm0 11.806c3.836-1.476 7.083.59 6.493 4.13-.296 2.51-1.476 3.395-4.132 3.395-2.656 0-3.837-.885-4.132-3.394-.295-1.918.443-3.69 1.77-4.132h.001zm0 11.804c3.836-1.475 7.083.59 6.493 4.132-.296 2.509-1.476 3.394-4.132 3.394-2.656 0-3.837-.885-4.132-3.394-.295-1.918.443-3.69 1.77-4.132h.001zm0 10.33c3.836-1.476 7.083.59 6.493 4.132-.296 2.508-1.476 3.394-4.132 3.394-2.656 0-3.837-.886-4.132-3.394-.295-1.92.443-3.69 1.77-4.132h.001zm11.805-401.375c3.836-1.476 7.083.59 6.493 4.132-.59 4.87-7.674 4.87-8.264 0-.295-1.92.443-3.69 1.77-4.132h.001zm0 11.805c3.836-1.476 7.083.59 6.493 4.132-.295 2.508-1.476 3.394-4.132 3.394-2.656 0-3.837-.886-4.132-3.394-.295-1.92.443-3.69 1.77-4.132h.001zm0 22.135c3.836-1.476 7.083.59 6.493 4.13-.295 2.51-1.476 3.395-4.132 3.395-2.656 0-3.837-.885-4.132-3.394-.295-1.918.443-3.69 1.77-4.131h.001zm0 11.805c3.836-1.476 7.083.59 6.493 4.132-.295 2.508-1.476 3.394-4.132 3.394-2.656 0-3.837-.886-4.132-3.394-.295-1.92.443-3.69 1.77-4.132h.001zm0 11.805c3.836-1.476 7.083.59 6.493 4.132-.295 2.508-1.476 3.394-4.132 3.394-2.656 0-3.837-.886-4.132-3.394-.295-1.92.443-3.69 1.77-4.132h.001zm0 22.135c3.836-1.476 7.083.59 6.493 4.13-.295 2.51-1.476 3.395-4.132 3.395-2.656 0-3.837-.885-4.132-3.394-.295-1.918.443-3.69 1.77-4.131h.001zm0 23.61c3.836-1.476 7.083.59 6.493 4.132-.295 2.508-1.476 3.394-4.132 3.394-2.656 0-3.837-.886-4.132-3.394-.295-1.92.443-3.69 1.77-4.132h.001zm0 194.785c3.836-1.476 7.083.59 6.493 4.132-.295 2.508-1.476 3.394-4.132 3.394-2.656 0-3.837-.886-4.132-3.394-.295-1.92.443-3.69 1.77-4.132h.001zm0 23.61c3.836-1.475 7.083.59 6.493 4.132-.295 2.509-1.476 3.394-4.132 3.394-2.656 0-3.837-.885-4.132-3.394-.295-1.918.443-3.69 1.77-4.132h.001zm0 11.805c3.836-1.475 7.083.59 6.493 4.132-.295 2.509-1.476 3.394-4.132 3.394-2.656 0-3.837-.885-4.132-3.394-.295-1.918.443-3.69 1.77-4.132h.001zm0 10.33c3.836-1.476 7.083.59 6.493 4.132-.295 2.508-1.476 3.394-4.132 3.394-2.656 0-3.837-.886-4.132-3.394-.295-1.92.443-3.69 1.77-4.132h.001zm0 11.805c3.836-1.476 7.083.59 6.493 4.132-.295 2.508-1.476 3.394-4.132 3.394-2.656 0-3.837-.886-4.132-3.394-.295-1.92.443-3.69 1.77-4.132h.001zm0 35.415c3.836-1.475 7.083.59 6.493 4.132-.295 2.509-1.476 3.394-4.132 3.394-2.656 0-3.837-.885-4.132-3.394-.295-1.918.443-3.69 1.77-4.132h.001zM292.34 18.149c3.837-1.476 7.083.59 6.493 4.132-.59 4.87-7.674 4.87-8.264 0-.295-1.92.443-3.69 1.771-4.132zm0 23.61c3.837-1.475 7.083.59 6.493 4.13-.295 2.51-1.476 3.396-4.132 3.396-2.656 0-3.837-.885-4.132-3.394-.295-1.918.443-3.69 1.771-4.132h0zm0 22.135c3.837-1.476 7.083.59 6.493 4.132-.295 2.508-1.476 3.394-4.132 3.394-2.656 0-3.837-.886-4.132-3.394-.295-1.92.443-3.69 1.771-4.132zm0 23.61c3.837-1.476 7.083.59 6.493 4.132-.295 2.508-1.476 3.394-4.132 3.394-2.656 0-3.837-.886-4.132-3.394-.295-1.918.443-3.69 1.771-4.132zm0 10.33c3.837-1.476 7.083.59 6.493 4.13-.295 2.51-1.476 3.395-4.132 3.395-2.656 0-3.837-.885-4.132-3.394-.295-1.918.443-3.69 1.771-4.131zm0 11.805c3.837-1.476 7.083.59 6.493 4.132-.295 2.508-1.476 3.394-4.132 3.394-2.656 0-3.837-.886-4.132-3.394-.295-1.92.443-3.69 1.771-4.132zm0 218.395c3.837-1.476 7.083.59 6.493 4.132-.295 2.508-1.476 3.394-4.132 3.394-2.656 0-3.837-.886-4.132-3.394-.295-1.92.443-3.69 1.771-4.132zm0 33.94c3.837-1.476 7.083.59 6.493 4.132-.295 2.508-1.476 3.394-4.132 3.394-2.656 0-3.837-.886-4.132-3.394-.295-1.92.443-3.69 1.771-4.132zm0 11.805c3.837-1.476 7.083.59 6.493 4.132-.295 2.508-1.476 3.394-4.132 3.394-2.656 0-3.837-.886-4.132-3.394-.295-1.92.443-3.69 1.771-4.132zm0 23.61c3.837-1.475 7.083.59 6.493 4.132-.295 2.509-1.476 3.394-4.132 3.394-2.656 0-3.837-.885-4.132-3.394-.295-1.918.443-3.69 1.771-4.132h0zm0 22.135c3.837-1.476 7.083.59 6.493 4.132-.295 2.508-1.476 3.394-4.132 3.394-2.656 0-3.837-.886-4.132-3.394-.295-1.92.443-3.69 1.771-4.132zm11.805-401.375c3.837-1.476 7.083.59 6.493 4.132-.59 4.87-7.673 4.87-8.264 0-.295-1.92.443-3.69 1.771-4.132zm0 45.745c3.837-1.476 7.083.59 6.493 4.132-.295 2.508-1.476 3.394-4.132 3.394-2.656 0-3.837-.886-4.132-3.394-.295-1.92.443-3.69 1.771-4.132h0zm0 11.805c3.837-1.476 7.083.59 6.493 4.132-.295 2.508-1.476 3.394-4.132 3.394-2.656 0-3.837-.886-4.132-3.394-.295-1.92.443-3.69 1.771-4.132h0zm0 22.135c3.837-1.476 7.083.59 6.493 4.13-.295 2.51-1.476 3.395-4.132 3.395-2.656 0-3.837-.885-4.132-3.394-.295-1.918.443-3.69 1.771-4.131h0zm0 35.415c3.837-1.476 7.083.59 6.493 4.132-.295 2.508-1.476 3.394-4.132 3.394-2.656 0-3.837-.886-4.132-3.394-.295-1.918.443-3.69 1.771-4.132h0zm0 11.805c3.837-1.475 7.083.59 6.493 4.132-.295 2.509-1.476 3.394-4.132 3.394-2.656 0-3.837-.885-4.132-3.394-.295-1.918.443-3.69 1.771-4.132h0zm0 10.33c3.837-1.476 7.083.59 6.493 4.132-.295 2.508-1.476 3.393-4.132 3.393-2.656 0-3.837-.885-4.132-3.393-.295-1.92.443-3.69 1.771-4.132h0zm0 11.805c3.837-1.476 7.083.59 6.493 4.132-.295 2.508-1.476 3.394-4.132 3.394-2.656 0-3.837-.886-4.132-3.394-.295-1.92.443-3.69 1.771-4.132h0zm0 23.61c3.837-1.475 7.083.59 6.493 4.132-.295 2.509-1.476 3.394-4.132 3.394-2.656 0-3.837-.885-4.132-3.394-.295-1.918.443-3.69 1.771-4.132h0zm0 11.805c3.837-1.475 7.083.59 6.493 4.132-.295 2.509-1.476 3.394-4.132 3.394-2.656 0-3.837-.885-4.132-3.394-.295-1.918.443-3.69 1.771-4.132h0zm0 10.33c3.837-1.476 7.083.59 6.493 4.132-.295 2.508-1.476 3.394-4.132 3.394-2.656 0-3.837-.886-4.132-3.394-.295-1.92.443-3.69 1.771-4.132h0zm0 23.61c3.837-1.476 7.083.59 6.493 4.132-.295 2.509-1.476 3.394-4.132 3.394-2.656 0-3.837-.885-4.132-3.394-.295-1.918.443-3.69 1.771-4.132h0zm0 33.94c3.837-1.476 7.083.59 6.493 4.132-.295 2.508-1.476 3.394-4.132 3.394-2.656 0-3.837-.886-4.132-3.394-.295-1.92.443-3.69 1.771-4.132h0zm0 11.806c3.837-1.477 7.083.59 6.493 4.13-.295 2.51-1.476 3.395-4.132 3.395-2.656 0-3.837-.886-4.132-3.394-.295-1.918.443-3.69 1.771-4.132h0zm0 33.939c3.837-1.476 7.083.59 6.493 4.132-.295 2.508-1.476 3.394-4.132 3.394-2.656 0-3.837-.886-4.132-3.394-.295-1.92.443-3.69 1.771-4.132h0zm0 11.805c3.837-1.476 7.083.59 6.493 4.132-.295 2.508-1.476 3.394-4.132 3.394-2.656 0-3.837-.886-4.132-3.394-.295-1.92.443-3.69 1.771-4.132h0zm0 11.806c3.837-1.476 7.083.59 6.493 4.13-.295 2.51-1.476 3.395-4.132 3.395-2.656 0-3.837-.885-4.132-3.394-.295-1.918.443-3.69 1.771-4.132h0zm0 11.804c3.837-1.475 7.083.59 6.493 4.132-.295 2.509-1.476 3.394-4.132 3.394-2.656 0-3.837-.885-4.132-3.394-.295-1.918.443-3.69 1.771-4.132h0zm0 10.33c3.837-1.476 7.083.59 6.493 4.132-.295 2.508-1.476 3.394-4.132 3.394-2.656 0-3.837-.886-4.132-3.394-.295-1.92.443-3.69 1.771-4.132h0zm0 47.22c3.837-1.475 7.083.59 6.493 4.132-.295 2.509-1.476 3.394-4.132 3.394-2.656 0-3.837-.885-4.132-3.394-.295-1.918.443-3.69 1.771-4.132h0zm0 10.33c3.837-1.476 7.083.59 6.493 4.132-.295 2.508-1.476 3.394-4.132 3.394-2.656 0-3.837-.886-4.132-3.394-.295-1.92.443-3.69 1.771-4.132h0zm0 11.806c3.837-1.477 7.083.59 6.493 4.13-.295 2.51-1.476 3.395-4.132 3.395-2.656 0-3.837-.886-4.132-3.394-.295-1.918.443-3.69 1.771-4.132h0zm10.33-413.181c3.836-1.476 7.083.59 6.492 4.132-.59 4.87-7.673 4.87-8.263 0-.295-1.92.443-3.69 1.77-4.132h.001zm0 23.61c3.836-1.475 7.083.59 6.492 4.13-.295 2.51-1.475 3.396-4.131 3.396-2.657 0-3.837-.885-4.132-3.394-.295-1.918.443-3.69 1.77-4.132h.001zm0 10.33c3.836-1.476 7.083.59 6.492 4.13-.295 2.51-1.475 3.395-4.131 3.395-2.657 0-3.837-.885-4.132-3.394-.295-1.918.443-3.69 1.77-4.131h.001zm0 35.415c3.836-1.476 7.083.59 6.492 4.132-.295 2.508-1.475 3.394-4.131 3.394-2.657 0-3.837-.886-4.132-3.394-.295-1.918.443-3.69 1.77-4.132h.001zm0 10.33c3.836-1.476 7.083.59 6.492 4.13-.295 2.51-1.475 3.395-4.131 3.395-2.657 0-3.837-.885-4.132-3.394-.295-1.918.443-3.69 1.77-4.131h.001zm0 23.61c3.836-1.476 7.083.59 6.492 4.132-.295 2.508-1.475 3.394-4.131 3.394-2.657 0-3.837-.886-4.132-3.394-.295-1.92.443-3.69 1.77-4.132h.001zm0 23.61c3.836-1.475 7.083.59 6.492 4.132-.295 2.509-1.475 3.394-4.131 3.394-2.657 0-3.837-.885-4.132-3.394-.295-1.918.443-3.69 1.77-4.132h.001zm0 10.33c3.836-1.476 7.083.59 6.492 4.132-.295 2.508-1.475 3.393-4.131 3.393-2.657 0-3.837-.885-4.132-3.393-.295-1.92.443-3.69 1.77-4.132h.001zm0 23.61c3.836-1.476 7.083.59 6.492 4.132-.295 2.508-1.475 3.394-4.131 3.394-2.657 0-3.837-.886-4.132-3.394-.295-1.92.443-3.69 1.77-4.132h.001zm0 11.806c3.836-1.476 7.083.59 6.492 4.13-.295 2.51-1.475 3.395-4.131 3.395-2.657 0-3.837-.885-4.132-3.394-.295-1.918.443-3.69 1.77-4.132h.001zm0 11.804c3.836-1.475 7.083.59 6.492 4.132-.295 2.509-1.475 3.394-4.131 3.394-2.657 0-3.837-.885-4.132-3.394-.295-1.918.443-3.69 1.77-4.132h.001zm0 33.94c3.836-1.476 7.083.59 6.492 4.132-.295 2.509-1.475 3.394-4.131 3.394-2.657 0-3.837-.885-4.132-3.394-.295-1.918.443-3.69 1.77-4.132h.001zm0 11.806c3.836-1.476 7.083.59 6.492 4.13-.295 2.51-1.475 3.395-4.131 3.395-2.657 0-3.837-.885-4.132-3.394-.295-1.918.443-3.69 1.77-4.132h.001zm0 22.134c3.836-1.476 7.083.59 6.492 4.132-.295 2.508-1.475 3.394-4.131 3.394-2.657 0-3.837-.886-4.132-3.394-.295-1.92.443-3.69 1.77-4.132h.001zm0 11.806c3.836-1.477 7.083.59 6.492 4.13-.295 2.51-1.475 3.395-4.131 3.395-2.657 0-3.837-.886-4.132-3.394-.295-1.918.443-3.69 1.77-4.132h.001zm0 23.61c3.836-1.476 7.083.59 6.492 4.13-.295 2.51-1.475 3.395-4.131 3.395-2.657 0-3.837-.885-4.132-3.394-.295-1.918.443-3.69 1.77-4.132h.001zm0 45.744c3.836-1.475 7.083.59 6.492 4.132-.295 2.509-1.475 3.394-4.131 3.394-2.657 0-3.837-.885-4.132-3.394-.295-1.918.443-3.69 1.77-4.132h.001zm0 10.33c3.836-1.476 7.083.59 6.492 4.132-.295 2.508-1.475 3.394-4.131 3.394-2.657 0-3.837-.886-4.132-3.394-.295-1.92.443-3.69 1.77-4.132h.001zm0 11.805c3.836-1.476 7.083.59 6.492 4.132-.295 2.508-1.475 3.394-4.131 3.394-2.657 0-3.837-.886-4.132-3.394-.295-1.92.443-3.69 1.77-4.132h.001zm0 23.61c3.836-1.475 7.083.59 6.492 4.132-.295 2.509-1.475 3.394-4.131 3.394-2.657 0-3.837-.885-4.132-3.394-.295-1.918.443-3.69 1.77-4.132h.001zm0 11.805c3.836-1.475 7.083.59 6.492 4.132-.295 2.509-1.475 3.394-4.131 3.394-2.657 0-3.837-.885-4.132-3.394-.295-1.918.443-3.69 1.77-4.132h.001zm0 22.136c3.836-1.477 7.083.59 6.492 4.13-.295 2.51-1.475 3.395-4.131 3.395-2.657 0-3.837-.886-4.132-3.394-.295-1.918.443-3.69 1.77-4.132h.001zM326.28 18.149c3.836-1.476 7.083.59 6.493 4.132-.59 4.87-7.674 4.87-8.264 0-.295-1.92.443-3.69 1.77-4.132h.001zm0 33.94c3.836-1.476 7.083.59 6.493 4.13-.296 2.51-1.476 3.395-4.132 3.395-2.656 0-3.837-.885-4.132-3.394-.295-1.918.443-3.69 1.77-4.131h.001zm0 11.805c3.836-1.476 7.083.59 6.493 4.132-.296 2.508-1.476 3.394-4.132 3.394-2.656 0-3.837-.886-4.132-3.394-.295-1.92.443-3.69 1.77-4.132h.001zm0 45.745c3.836-1.476 7.083.59 6.493 4.132-.296 2.508-1.476 3.394-4.132 3.394-2.656 0-3.837-.886-4.132-3.394-.295-1.92.443-3.69 1.77-4.132h.001zm0 11.805c3.836-1.476 7.083.59 6.493 4.132-.296 2.508-1.476 3.394-4.132 3.394-2.656 0-3.837-.886-4.132-3.394-.295-1.92.443-3.69 1.77-4.132h.001zm0 33.94c3.836-1.476 7.083.59 6.493 4.132-.296 2.508-1.476 3.393-4.132 3.393-2.656 0-3.837-.885-4.132-3.393-.295-1.92.443-3.69 1.77-4.132h.001zm0 11.805c3.836-1.476 7.083.59 6.493 4.132-.296 2.508-1.476 3.394-4.132 3.394-2.656 0-3.837-.886-4.132-3.394-.295-1.92.443-3.69 1.77-4.132h.001zm0 23.61c3.836-1.475 7.083.59 6.493 4.132-.296 2.509-1.476 3.394-4.132 3.394-2.656 0-3.837-.885-4.132-3.394-.295-1.918.443-3.69 1.77-4.132h.001zm0 57.55c3.836-1.475 7.083.59 6.493 4.132-.296 2.509-1.476 3.394-4.132 3.394-2.656 0-3.837-.885-4.132-3.394-.295-1.918.443-3.69 1.77-4.132h.001zm0 33.94c3.836-1.476 7.083.59 6.493 4.13-.296 2.51-1.476 3.396-4.132 3.396-2.656 0-3.837-.886-4.132-3.394-.295-1.918.443-3.69 1.77-4.132h.001zm0 11.805c3.836-1.475 7.083.59 6.493 4.132-.296 2.509-1.476 3.394-4.132 3.394-2.656 0-3.837-.885-4.132-3.394-.295-1.918.443-3.69 1.77-4.132h.001zm0 11.806c3.836-1.476 7.083.59 6.493 4.13-.296 2.51-1.476 3.395-4.132 3.395-2.656 0-3.837-.885-4.132-3.394-.295-1.918.443-3.69 1.77-4.132h.001zm0 33.94c3.836-1.476 7.083.59 6.493 4.13-.296 2.51-1.476 3.395-4.132 3.395-2.656 0-3.837-.885-4.132-3.394-.295-1.918.443-3.69 1.77-4.132h.001zm0 11.804c3.836-1.475 7.083.59 6.493 4.132-.296 2.509-1.476 3.394-4.132 3.394-2.656 0-3.837-.885-4.132-3.394-.295-1.918.443-3.69 1.77-4.132h.001zm0 57.55c3.836-1.475 7.083.59 6.493 4.132-.296 2.509-1.476 3.394-4.132 3.394-2.656 0-3.837-.885-4.132-3.394-.295-1.918.443-3.69 1.77-4.132h.001zm0 10.33c3.836-1.476 7.083.59 6.493 4.132-.296 2.508-1.476 3.394-4.132 3.394-2.656 0-3.837-.886-4.132-3.394-.295-1.92.443-3.69 1.77-4.132h.001zm11.805-401.375c3.837-1.476 7.083.59 6.493 4.132-.59 4.87-7.674 4.87-8.264 0-.295-1.92.443-3.69 1.77-4.132h.001zm0 33.94c3.837-1.476 7.083.59 6.493 4.13-.59 4.87-7.674 4.87-8.264 0-.295-1.917.443-3.688 1.77-4.13h.001zm0 23.61c3.837-1.476 7.083.59 6.493 4.132-.59 4.87-7.674 4.87-8.264 0-.295-1.92.443-3.69 1.77-4.132h.001zm0 11.805c3.837-1.476 7.083.59 6.493 4.132-.59 4.87-7.674 4.87-8.264 0-.295-1.918.443-3.69 1.77-4.132h.001zm0 45.745c3.837-1.476 7.083.59 6.493 4.132-.295 2.508-1.476 3.394-4.132 3.394-2.656 0-3.837-.886-4.132-3.394-.295-1.918.443-3.69 1.77-4.132h.001zm0 11.805c3.837-1.475 7.083.59 6.493 4.132-.295 2.509-1.476 3.394-4.132 3.394-2.656 0-3.837-.885-4.132-3.394-.295-1.918.443-3.69 1.77-4.132h.001zm0 22.135c3.837-1.476 7.083.59 6.493 4.132-.295 2.508-1.476 3.394-4.132 3.394-2.656 0-3.837-.886-4.132-3.394-.295-1.92.443-3.69 1.77-4.132h.001zm0 35.415c3.837-1.475 7.083.59 6.493 4.132-.295 2.509-1.476 3.394-4.132 3.394-2.656 0-3.837-.885-4.132-3.394-.295-1.918.443-3.69 1.77-4.132h.001zm0 22.135c3.837-1.476 7.083.59 6.493 4.132-.295 2.508-1.476 3.394-4.132 3.394-2.656 0-3.837-.886-4.132-3.394-.295-1.92.443-3.69 1.77-4.132h.001zm0 11.805c3.837-1.476 7.083.59 6.493 4.132-.295 2.509-1.476 3.394-4.132 3.394-2.656 0-3.837-.885-4.132-3.394-.295-1.918.443-3.69 1.77-4.132h.001zm0 22.135c3.837-1.476 7.083.59 6.493 4.132-.295 2.508-1.476 3.394-4.132 3.394-2.656 0-3.837-.886-4.132-3.394-.295-1.92.443-3.69 1.77-4.132h.001zm0 11.805c3.837-1.476 7.083.59 6.493 4.132-.295 2.508-1.476 3.394-4.132 3.394-2.656 0-3.837-.886-4.132-3.394-.295-1.92.443-3.69 1.77-4.132h.001zm0 35.416c3.837-1.476 7.083.59 6.493 4.13-.295 2.51-1.476 3.395-4.132 3.395-2.656 0-3.837-.885-4.132-3.394-.295-1.918.443-3.69 1.77-4.132h.001zm0 10.329c3.837-1.476 7.083.59 6.493 4.132-.295 2.508-1.476 3.394-4.132 3.394-2.656 0-3.837-.886-4.132-3.394-.295-1.92.443-3.69 1.77-4.132h.001zm0 23.61c3.837-1.475 7.083.59 6.493 4.132-.295 2.509-1.476 3.394-4.132 3.394-2.656 0-3.837-.885-4.132-3.394-.295-1.918.443-3.69 1.77-4.132h.001zm0 11.805c3.837-1.475 7.083.59 6.493 4.132-.295 2.509-1.476 3.394-4.132 3.394-2.656 0-3.837-.885-4.132-3.394-.295-1.918.443-3.69 1.77-4.132h.001zm0 10.33c3.837-1.476 7.083.59 6.493 4.132-.295 2.508-1.476 3.394-4.132 3.394-2.656 0-3.837-.886-4.132-3.394-.295-1.92.443-3.69 1.77-4.132h.001zm0 11.805c3.837-1.476 7.083.59 6.493 4.132-.295 2.508-1.476 3.394-4.132 3.394-2.656 0-3.837-.886-4.132-3.394-.295-1.92.443-3.69 1.77-4.132h.001zm0 11.805c3.837-1.476 7.083.59 6.493 4.132-.295 2.509-1.476 3.394-4.132 3.394-2.656 0-3.837-.885-4.132-3.394-.295-1.918.443-3.69 1.77-4.132h.001zm0 11.806c3.837-1.476 7.083.59 6.493 4.13-.295 2.51-1.476 3.395-4.132 3.395-2.656 0-3.837-.885-4.132-3.394-.295-1.918.443-3.69 1.77-4.132h.001zm0 33.94c3.837-1.477 7.083.59 6.493 4.13-.295 2.51-1.476 3.395-4.132 3.395-2.656 0-3.837-.886-4.132-3.394-.295-1.918.443-3.69 1.77-4.132h.001zm11.805-321.691c3.837-1.476 7.083.59 6.493 4.132-.295 2.508-1.476 3.394-4.132 3.394-2.656 0-3.837-.886-4.132-3.394-.295-1.92.443-3.69 1.771-4.132zm0 11.805c3.837-1.476 7.083.59 6.493 4.132-.295 2.508-1.476 3.394-4.132 3.394-2.656 0-3.837-.886-4.132-3.394-.295-1.92.443-3.69 1.771-4.132zm0 45.745c3.837-1.476 7.083.59 6.493 4.132-.295 2.508-1.476 3.394-4.132 3.394-2.656 0-3.837-.886-4.132-3.394-.295-1.92.443-3.69 1.771-4.132zm0 23.61c3.837-1.475 7.083.59 6.493 4.132-.295 2.509-1.476 3.394-4.132 3.394-2.656 0-3.837-.885-4.132-3.394-.295-1.918.443-3.69 1.771-4.132h0zm0 22.135c3.837-1.476 7.083.59 6.493 4.132-.295 2.508-1.476 3.394-4.132 3.394-2.656 0-3.837-.886-4.132-3.394-.295-1.92.443-3.69 1.771-4.132zm0 23.61c3.837-1.476 7.083.59 6.493 4.132-.295 2.509-1.476 3.394-4.132 3.394-2.656 0-3.837-.885-4.132-3.394-.295-1.918.443-3.69 1.771-4.132zm0 11.806c3.837-1.476 7.083.59 6.493 4.13-.295 2.51-1.476 3.395-4.132 3.395-2.656 0-3.837-.885-4.132-3.394-.295-1.918.443-3.69 1.771-4.132h0zm0 33.94c3.837-1.477 7.083.59 6.493 4.13-.295 2.51-1.476 3.395-4.132 3.395-2.656 0-3.837-.886-4.132-3.394-.295-1.918.443-3.69 1.771-4.132h0zm0 11.804c3.837-1.475 7.083.59 6.493 4.132-.295 2.509-1.476 3.394-4.132 3.394-2.656 0-3.837-.885-4.132-3.394-.295-1.918.443-3.69 1.771-4.132zm0 22.135c3.837-1.476 7.083.59 6.493 4.132-.295 2.508-1.476 3.394-4.132 3.394-2.656 0-3.837-.886-4.132-3.394-.295-1.92.443-3.69 1.771-4.132zm0 11.805c3.837-1.476 7.083.59 6.493 4.132-.295 2.508-1.476 3.394-4.132 3.394-2.656 0-3.837-.886-4.132-3.394-.295-1.92.443-3.69 1.771-4.132zm0 11.806c3.837-1.476 7.083.59 6.493 4.13-.295 2.51-1.476 3.395-4.132 3.395-2.656 0-3.837-.885-4.132-3.394-.295-1.918.443-3.69 1.771-4.132h0zm0 45.744c3.837-1.476 7.083.59 6.493 4.132-.295 2.509-1.476 3.394-4.132 3.394-2.656 0-3.837-.885-4.132-3.394-.295-1.918.443-3.69 1.771-4.132zm10.33-355.482c2.656-6.05 10.182-12.248 16.232-13.281 2.656-.59 14.166-.738 25.676-.443 22.577.443 24.938 1.328 31.874 10.625 2.803 3.689 3.099 6.05 3.099 28.922 0 27.3-.443 28.775-10.182 36.006-3.69 2.804-6.05 3.099-28.923 3.099-22.872 0-25.233-.295-28.923-3.1-9.591-7.082-10.182-9-10.477-34.234-.295-17.117.148-24.348 1.624-27.594zm11.952 51.647c3.394 3.542 4.132 3.69 25.086 3.69s21.692-.148 25.086-3.69c3.542-3.394 3.69-4.132 3.69-25.086s-.148-21.692-3.69-25.086c-3.394-3.541-4.132-3.69-25.086-3.69s-21.692.149-25.086 3.69c-3.541 3.394-3.689 4.132-3.689 25.086s.148 21.692 3.69 25.086h-.001z"/><path d="M382.207 40.284c1.033-.296 8.558-.443 16.674-.296l14.61.443v32.464h-32.465l-.443-15.937c-.295-12.248 0-16.084 1.624-16.674zm-21.987 69.355c3.836-1.476 7.083.59 6.492 4.132-.295 2.508-1.475 3.394-4.131 3.394-2.657 0-3.837-.886-4.132-3.394-.295-1.919.442-3.69 1.77-4.132h.001zm0 23.61c3.836-1.476 7.083.59 6.492 4.132-.295 2.508-1.475 3.394-4.131 3.394-2.657 0-3.837-.886-4.132-3.394-.295-1.918.442-3.69 1.77-4.132h.001zm0 11.805c3.836-1.475 7.083.59 6.492 4.132-.295 2.509-1.475 3.394-4.131 3.394-2.657 0-3.837-.885-4.132-3.394-.295-1.918.442-3.69 1.77-4.132h.001zm0 10.33c3.836-1.476 7.083.59 6.492 4.132-.295 2.508-1.475 3.393-4.131 3.393-2.657 0-3.837-.885-4.132-3.393-.295-1.919.442-3.69 1.77-4.132h.001zm0 11.805c3.836-1.476 7.083.59 6.492 4.132-.295 2.508-1.475 3.394-4.131 3.394-2.657 0-3.837-.886-4.132-3.394-.295-1.919.442-3.69 1.77-4.132h.001zm0 11.805c3.836-1.476 7.083.59 6.492 4.132-.295 2.508-1.475 3.394-4.131 3.394-2.657 0-3.837-.886-4.132-3.394-.295-1.919.442-3.69 1.77-4.132h.001zm0 11.806c3.836-1.476 7.083.59 6.492 4.131-.295 2.509-1.475 3.394-4.131 3.394-2.657 0-3.837-.885-4.132-3.394-.295-1.918.442-3.69 1.77-4.132l.001.001zm0 45.744c3.836-1.476 7.083.59 6.492 4.132-.295 2.509-1.475 3.394-4.131 3.394-2.657 0-3.837-.885-4.132-3.394-.295-1.918.442-3.69 1.77-4.132h.001zm0 33.94c3.836-1.476 7.083.59 6.492 4.132-.295 2.508-1.475 3.394-4.131 3.394-2.657 0-3.837-.886-4.132-3.394-.295-1.919.442-3.69 1.77-4.132h.001zm0 23.61c3.836-1.475 7.083.59 6.492 4.132-.295 2.509-1.475 3.394-4.131 3.394-2.657 0-3.837-.885-4.132-3.394-.295-1.918.442-3.69 1.77-4.132h.001zm0 11.806c3.836-1.476 7.083.59 6.492 4.131-.295 2.509-1.475 3.394-4.131 3.394-2.657 0-3.837-.885-4.132-3.394-.295-1.918.442-3.689 1.77-4.132l.001.001zm0 10.329c3.836-1.476 7.083.59 6.492 4.132-.295 2.508-1.475 3.394-4.131 3.394-2.657 0-3.837-.886-4.132-3.394-.295-1.919.442-3.69 1.77-4.132h.001zm0 11.805c3.836-1.476 7.083.59 6.492 4.132-.295 2.508-1.475 3.394-4.131 3.394-2.657 0-3.837-.886-4.132-3.394-.295-1.919.442-3.69 1.77-4.132h.001zm0 11.806c3.836-1.476 7.083.59 6.492 4.131-.295 2.509-1.475 3.394-4.131 3.394-2.657 0-3.837-.885-4.132-3.394-.295-1.918.442-3.69 1.77-4.132l.001.001zm0 22.134c3.836-1.476 7.083.59 6.492 4.132-.295 2.508-1.475 3.394-4.131 3.394-2.657 0-3.837-.886-4.132-3.394-.295-1.919.442-3.69 1.77-4.132h.001zm0 23.61c3.836-1.476 7.083.59 6.492 4.132-.295 2.509-1.475 3.394-4.131 3.394-2.657 0-3.837-.885-4.132-3.394-.295-1.918.442-3.69 1.77-4.132h.001zm0 11.806c3.836-1.476 7.083.59 6.492 4.131-.295 2.509-1.475 3.394-4.131 3.394-2.657 0-3.837-.885-4.132-3.394-.295-1.918.442-3.689 1.77-4.132l.001.001zm0 11.804c3.836-1.475 7.083.59 6.492 4.132-.295 2.509-1.475 3.394-4.131 3.394-2.657 0-3.837-.885-4.132-3.394-.295-1.918.442-3.689 1.77-4.132h.001zm0 10.33c3.836-1.476 7.083.59 6.492 4.132-.295 2.508-1.475 3.394-4.131 3.394-2.657 0-3.837-.886-4.132-3.394-.295-1.919.442-3.69 1.77-4.132h.001zm11.805-309.885c3.836-1.476 7.083.59 6.493 4.132-.296 2.508-1.476 3.394-4.132 3.394-2.656 0-3.837-.886-4.132-3.394-.295-1.919.443-3.69 1.77-4.132h.001zm0 11.805c3.836-1.476 7.083.59 6.493 4.132-.296 2.508-1.476 3.394-4.132 3.394-2.656 0-3.837-.886-4.132-3.394-.295-1.919.443-3.69 1.77-4.132h.001zm0 23.61c3.836-1.475 7.083.59 6.493 4.132-.296 2.509-1.476 3.394-4.132 3.394-2.656 0-3.837-.885-4.132-3.394-.295-1.918.443-3.69 1.77-4.132h.001zm0 10.33c3.836-1.476 7.083.59 6.493 4.132-.296 2.508-1.476 3.393-4.132 3.393-2.656 0-3.837-.885-4.132-3.393-.295-1.919.443-3.69 1.77-4.132h.001zm0 11.805c3.836-1.476 7.083.59 6.493 4.132-.296 2.508-1.476 3.394-4.132 3.394-2.656 0-3.837-.886-4.132-3.394-.295-1.919.443-3.69 1.77-4.132h.001zm0 11.805c3.836-1.476 7.083.59 6.493 4.132-.296 2.508-1.476 3.394-4.132 3.394-2.656 0-3.837-.886-4.132-3.394-.295-1.919.443-3.69 1.77-4.132h.001zm0 11.806c3.836-1.476 7.083.59 6.493 4.131-.296 2.509-1.476 3.394-4.132 3.394-2.656 0-3.837-.885-4.132-3.394-.295-1.918.443-3.69 1.77-4.132l.001.001zm0 22.134c3.836-1.476 7.083.59 6.493 4.132-.296 2.508-1.476 3.394-4.132 3.394-2.656 0-3.837-.886-4.132-3.394-.295-1.919.443-3.69 1.77-4.132h.001zm0 35.416c3.836-1.476 7.083.59 6.493 4.131-.296 2.509-1.476 3.394-4.132 3.394-2.656 0-3.837-.885-4.132-3.394-.295-1.918.443-3.69 1.77-4.132l.001.001zm0 33.94c3.836-1.477 7.083.59 6.493 4.13-.296 2.51-1.476 3.395-4.132 3.395-2.656 0-3.837-.886-4.132-3.394-.295-1.918.443-3.69 1.77-4.132l.001.001zm0 57.55c3.836-1.476 7.083.59 6.493 4.131-.296 2.509-1.476 3.394-4.132 3.394-2.656 0-3.837-.885-4.132-3.394-.295-1.918.443-3.69 1.77-4.132l.001.001zm0 45.744c3.836-1.476 7.083.59 6.493 4.132-.296 2.509-1.476 3.394-4.132 3.394-2.656 0-3.837-.885-4.132-3.394-.295-1.918.443-3.69 1.77-4.132h.001zm0 11.806c3.836-1.476 7.083.59 6.493 4.131-.296 2.509-1.476 3.394-4.132 3.394-2.656 0-3.837-.885-4.132-3.394-.295-1.918.443-3.689 1.77-4.132l.001.001zm0 11.804c3.836-1.475 7.083.59 6.493 4.132-.296 2.509-1.476 3.394-4.132 3.394-2.656 0-3.837-.885-4.132-3.394-.295-1.918.443-3.689 1.77-4.132h.001zm11.805-299.555c3.837-1.476 7.083.59 6.493 4.132-.295 2.508-1.476 3.394-4.132 3.394-2.656 0-3.837-.886-4.132-3.394-.295-1.919.443-3.69 1.77-4.132h.001zm0 23.61c3.837-1.476 7.083.59 6.493 4.132-.295 2.508-1.476 3.394-4.132 3.394-2.656 0-3.837-.886-4.132-3.394-.295-1.918.443-3.69 1.77-4.132h.001zm0 33.94c3.837-1.476 7.083.59 6.493 4.132-.295 2.508-1.476 3.394-4.132 3.394-2.656 0-3.837-.886-4.132-3.394-.295-1.919.443-3.69 1.77-4.132h.001zm0 11.805c3.837-1.476 7.083.59 6.493 4.132-.295 2.508-1.476 3.394-4.132 3.394-2.656 0-3.837-.886-4.132-3.394-.295-1.919.443-3.69 1.77-4.132h.001zm0 33.94c3.837-1.476 7.083.59 6.493 4.132-.295 2.508-1.476 3.394-4.132 3.394-2.656 0-3.837-.886-4.132-3.394-.295-1.919.443-3.69 1.77-4.132h.001zm0 35.416c3.837-1.476 7.083.59 6.493 4.131-.295 2.509-1.476 3.394-4.132 3.394-2.656 0-3.837-.885-4.132-3.394-.295-1.918.443-3.69 1.77-4.132l.001.001zm0 10.329c3.837-1.476 7.083.59 6.493 4.132-.295 2.508-1.476 3.394-4.132 3.394-2.656 0-3.837-.886-4.132-3.394-.295-1.919.443-3.69 1.77-4.132h.001zm0 11.805c3.837-1.476 7.083.59 6.493 4.132-.295 2.508-1.476 3.394-4.132 3.394-2.656 0-3.837-.886-4.132-3.394-.295-1.919.443-3.69 1.77-4.132h.001zm0 23.61c3.837-1.475 7.083.59 6.493 4.132-.295 2.509-1.476 3.394-4.132 3.394-2.656 0-3.837-.885-4.132-3.394-.295-1.918.443-3.69 1.77-4.132h.001zm0 45.746c3.837-1.476 7.083.59 6.493 4.131-.295 2.509-1.476 3.394-4.132 3.394-2.656 0-3.837-.885-4.132-3.394-.295-1.918.443-3.69 1.77-4.132l.001.001zm0 11.804c3.837-1.475 7.083.59 6.493 4.132-.295 2.509-1.476 3.394-4.132 3.394-2.656 0-3.837-.885-4.132-3.394-.295-1.918.443-3.689 1.77-4.132h.001zm0 10.33c3.837-1.476 7.083.59 6.493 4.132-.295 2.508-1.476 3.394-4.132 3.394-2.656 0-3.837-.886-4.132-3.394-.295-1.919.443-3.69 1.77-4.132h.001zm0 11.805c3.837-1.476 7.083.59 6.493 4.132-.295 2.508-1.476 3.394-4.132 3.394-2.656 0-3.837-.886-4.132-3.394-.295-1.919.443-3.69 1.77-4.132h.001zm0 11.805c3.837-1.476 7.083.59 6.493 4.132-.295 2.509-1.476 3.394-4.132 3.394-2.656 0-3.837-.885-4.132-3.394-.295-1.918.443-3.69 1.77-4.132h.001zm0 11.806c3.837-1.476 7.083.59 6.493 4.131-.295 2.509-1.476 3.394-4.132 3.394-2.656 0-3.837-.885-4.132-3.394-.295-1.918.443-3.689 1.77-4.132l.001.001zm0 33.94c3.837-1.477 7.083.59 6.493 4.13-.295 2.51-1.476 3.395-4.132 3.395-2.656 0-3.837-.886-4.132-3.394-.295-1.918.443-3.69 1.77-4.132l.001.001zm11.805-321.691c3.837-1.476 7.083.59 6.493 4.132-.295 2.508-1.476 3.394-4.132 3.394-2.656 0-3.837-.886-4.132-3.394-.295-1.919.443-3.69 1.771-4.132zm0 11.805c3.837-1.476 7.083.59 6.493 4.132-.295 2.508-1.476 3.394-4.132 3.394-2.656 0-3.837-.886-4.132-3.394-.295-1.919.443-3.69 1.771-4.132zm0 11.805c3.837-1.476 7.083.59 6.493 4.132-.295 2.508-1.476 3.394-4.132 3.394-2.656 0-3.837-.886-4.132-3.394-.295-1.918.443-3.69 1.771-4.132zm0 11.805c3.837-1.475 7.083.59 6.493 4.132-.295 2.509-1.476 3.394-4.132 3.394-2.656 0-3.837-.885-4.132-3.394-.295-1.918.443-3.69 1.771-4.132zm0 10.33c3.837-1.476 7.083.59 6.493 4.132-.295 2.508-1.476 3.393-4.132 3.393-2.656 0-3.837-.885-4.132-3.393-.295-1.919.443-3.69 1.771-4.132zm0 47.22c3.837-1.475 7.083.59 6.493 4.132-.295 2.509-1.476 3.394-4.132 3.394-2.656 0-3.837-.885-4.132-3.394-.295-1.918.443-3.689 1.771-4.132zm0 22.135c3.837-1.476 7.083.59 6.493 4.132-.295 2.508-1.476 3.394-4.132 3.394-2.656 0-3.837-.886-4.132-3.394-.295-1.919.443-3.69 1.771-4.132zm0 33.94c3.837-1.476 7.083.59 6.493 4.132-.295 2.508-1.476 3.394-4.132 3.394-2.656 0-3.837-.886-4.132-3.394-.295-1.919.443-3.69 1.771-4.132zm0 47.221c3.837-1.476 7.083.59 6.493 4.131-.295 2.509-1.476 3.394-4.132 3.394-2.656 0-3.837-.885-4.132-3.394-.295-1.918.443-3.689 1.771-4.132v.001zm0 10.329c3.837-1.476 7.083.59 6.493 4.132-.295 2.508-1.476 3.394-4.132 3.394-2.656 0-3.837-.886-4.132-3.394-.295-1.919.443-3.69 1.771-4.132zm0 11.805c3.837-1.476 7.083.59 6.493 4.132-.295 2.508-1.476 3.394-4.132 3.394-2.656 0-3.837-.886-4.132-3.394-.295-1.919.443-3.69 1.771-4.132zm0 11.806c3.837-1.476 7.083.59 6.493 4.131-.295 2.509-1.476 3.394-4.132 3.394-2.656 0-3.837-.885-4.132-3.394-.295-1.918.443-3.69 1.771-4.132v.001zm0 22.134c3.837-1.476 7.083.59 6.493 4.132-.295 2.508-1.476 3.394-4.132 3.394-2.656 0-3.837-.886-4.132-3.394-.295-1.919.443-3.69 1.771-4.132zm0 11.805c3.837-1.476 7.083.59 6.493 4.132-.295 2.508-1.476 3.394-4.132 3.394-2.656 0-3.837-.886-4.132-3.394-.295-1.919.443-3.69 1.771-4.132zm0 45.745c3.837-1.476 7.083.59 6.493 4.132-.295 2.508-1.476 3.394-4.132 3.394-2.656 0-3.837-.886-4.132-3.394-.295-1.919.443-3.69 1.771-4.132zm0 11.806c3.837-1.477 7.083.59 6.493 4.13-.295 2.51-1.476 3.395-4.132 3.395-2.656 0-3.837-.886-4.132-3.394-.295-1.918.443-3.69 1.771-4.132v.001zm11.805-321.691c3.837-1.476 7.083.59 6.493 4.132-.295 2.508-1.476 3.394-4.132 3.394-2.656 0-3.836-.886-4.132-3.394-.295-1.919.443-3.69 1.771-4.132zm0 11.805c3.837-1.476 7.083.59 6.493 4.132-.295 2.508-1.476 3.394-4.132 3.394-2.656 0-3.836-.886-4.132-3.394-.295-1.919.443-3.69 1.771-4.132zm0 33.94c3.837-1.476 7.083.59 6.493 4.132-.295 2.508-1.476 3.393-4.132 3.393-2.656 0-3.836-.885-4.132-3.393-.295-1.919.443-3.69 1.771-4.132zm0 11.805c3.837-1.476 7.083.59 6.493 4.132-.295 2.508-1.476 3.394-4.132 3.394-2.656 0-3.836-.886-4.132-3.394-.295-1.919.443-3.69 1.771-4.132zm0 35.415c3.837-1.475 7.083.59 6.493 4.132-.295 2.509-1.476 3.394-4.132 3.394-2.656 0-3.836-.885-4.132-3.394-.295-1.918.443-3.689 1.771-4.132zm0 10.33c3.837-1.476 7.083.59 6.493 4.132-.295 2.508-1.476 3.394-4.132 3.394-2.656 0-3.836-.886-4.132-3.394-.295-1.919.443-3.69 1.771-4.132zm0 35.416c3.837-1.476 7.083.59 6.493 4.131-.295 2.509-1.476 3.394-4.132 3.394-2.656 0-3.836-.885-4.132-3.394-.295-1.918.443-3.69 1.771-4.132v.001zm0 10.329c3.837-1.476 7.083.59 6.493 4.132-.295 2.508-1.476 3.394-4.132 3.394-2.656 0-3.836-.886-4.132-3.394-.295-1.919.443-3.69 1.771-4.132zm0 23.611c3.837-1.477 7.083.59 6.493 4.13-.295 2.51-1.476 3.395-4.132 3.395-2.656 0-3.836-.886-4.132-3.394-.295-1.918.443-3.69 1.771-4.132v.001zm0 11.804c3.837-1.475 7.083.59 6.493 4.132-.295 2.509-1.476 3.394-4.132 3.394-2.656 0-3.836-.885-4.132-3.394-.295-1.918.443-3.69 1.771-4.132zm0 11.806c3.837-1.476 7.083.59 6.493 4.13-.295 2.51-1.476 3.395-4.132 3.395-2.656 0-3.836-.885-4.132-3.394-.295-1.918.443-3.69 1.771-4.132v.001zm0 10.329c3.837-1.476 7.083.59 6.493 4.132-.295 2.508-1.476 3.394-4.132 3.394-2.656 0-3.836-.886-4.132-3.394-.295-1.919.443-3.69 1.771-4.132zm0 23.611c3.837-1.476 7.083.59 6.493 4.131-.295 2.509-1.476 3.394-4.132 3.394-2.656 0-3.836-.885-4.132-3.394-.295-1.918.443-3.69 1.771-4.132v.001zm0 22.134c3.837-1.476 7.083.59 6.493 4.132-.295 2.508-1.476 3.394-4.132 3.394-2.656 0-3.836-.886-4.132-3.394-.295-1.919.443-3.69 1.771-4.132zm0 47.22c3.837-1.475 7.083.59 6.493 4.132-.295 2.509-1.476 3.394-4.132 3.394-2.656 0-3.836-.885-4.132-3.394-.295-1.918.443-3.689 1.771-4.132zm0 22.136c3.837-1.477 7.083.59 6.493 4.13-.295 2.51-1.476 3.395-4.132 3.395-2.656 0-3.836-.886-4.132-3.394-.295-1.918.443-3.69 1.771-4.132v.001zm10.33-321.691c3.836-1.476 7.083.59 6.492 4.132-.295 2.508-1.475 3.394-4.131 3.394s-3.837-.886-4.132-3.394c-.295-1.919.443-3.69 1.77-4.132h.001zm0 35.415c3.836-1.475 7.083.59 6.492 4.132-.295 2.509-1.475 3.394-4.131 3.394s-3.837-.885-4.132-3.394c-.295-1.918.443-3.69 1.77-4.132h.001zm0 22.135c3.836-1.476 7.083.59 6.492 4.132-.295 2.508-1.475 3.394-4.131 3.394s-3.837-.886-4.132-3.394c-.295-1.92.443-3.69 1.77-4.132h.001zm0 91.49c3.836-1.476 7.083.59 6.492 4.132-.295 2.508-1.475 3.394-4.131 3.394s-3.837-.886-4.132-3.394c-.295-1.919.443-3.69 1.77-4.132h.001zm0 11.805c3.836-1.476 7.083.59 6.492 4.132-.295 2.508-1.475 3.394-4.131 3.394s-3.837-.886-4.132-3.394c-.295-1.919.443-3.69 1.77-4.132h.001zm0 11.806c3.836-1.477 7.083.59 6.492 4.13-.295 2.51-1.475 3.395-4.131 3.395s-3.837-.886-4.132-3.394c-.295-1.918.443-3.69 1.77-4.132l.001.001zm0 23.61c3.836-1.476 7.083.59 6.492 4.13-.295 2.51-1.475 3.395-4.131 3.395s-3.837-.885-4.132-3.394c-.295-1.918.443-3.69 1.77-4.132l.001.001zm0 22.134c3.836-1.476 7.083.59 6.492 4.132-.295 2.508-1.475 3.394-4.131 3.394s-3.837-.886-4.132-3.394c-.295-1.919.443-3.69 1.77-4.132h.001zm0 11.806c3.836-1.476 7.083.59 6.492 4.131-.295 2.509-1.475 3.394-4.131 3.394s-3.837-.885-4.132-3.394c-.295-1.918.443-3.69 1.77-4.132l.001.001zm0 11.804c3.836-1.475 7.083.59 6.492 4.132-.295 2.509-1.475 3.394-4.131 3.394s-3.837-.885-4.132-3.394c-.295-1.918.443-3.689 1.77-4.132h.001zm0 10.33c3.836-1.476 7.083.59 6.492 4.132-.295 2.508-1.475 3.394-4.131 3.394s-3.837-.886-4.132-3.394c-.295-1.919.443-3.69 1.77-4.132h.001zm0 11.805c3.836-1.476 7.083.59 6.492 4.132-.295 2.508-1.475 3.394-4.131 3.394s-3.837-.886-4.132-3.394c-.295-1.919.443-3.69 1.77-4.132h.001zm0 23.611c3.836-1.476 7.083.59 6.492 4.131-.295 2.509-1.475 3.394-4.131 3.394s-3.837-.885-4.132-3.394c-.295-1.918.443-3.689 1.77-4.132l.001.001zm0 22.134c3.836-1.476 7.083.59 6.492 4.132-.295 2.508-1.475 3.394-4.131 3.394s-3.837-.886-4.132-3.394c-.295-1.919.443-3.69 1.77-4.132h.001zm11.805-298.08c3.836-1.476 7.083.59 6.493 4.132-.296 2.508-1.476 3.394-4.132 3.394-2.656 0-3.837-.886-4.132-3.394-.295-1.919.443-3.69 1.77-4.132h.001zm0 11.805c3.836-1.476 7.083.59 6.493 4.132-.296 2.508-1.476 3.394-4.132 3.394-2.656 0-3.837-.886-4.132-3.394-.295-1.918.443-3.69 1.77-4.132h.001zm0 11.805c3.836-1.475 7.083.59 6.493 4.132-.296 2.509-1.476 3.394-4.132 3.394-2.656 0-3.837-.885-4.132-3.394-.295-1.918.443-3.69 1.77-4.132h.001zm0 45.746c3.836-1.476 7.083.59 6.493 4.131-.296 2.509-1.476 3.394-4.132 3.394-2.656 0-3.837-.885-4.132-3.394-.295-1.918.443-3.69 1.77-4.132l.001.001zm0 11.804c3.836-1.475 7.083.59 6.493 4.132-.296 2.509-1.476 3.394-4.132 3.394-2.656 0-3.837-.885-4.132-3.394-.295-1.918.443-3.69 1.77-4.132h.001zm0 10.33c3.836-1.476 7.083.59 6.493 4.132-.296 2.508-1.476 3.394-4.132 3.394-2.656 0-3.837-.886-4.132-3.394-.295-1.92.443-3.69 1.77-4.132h.001zm0 11.805c3.836-1.476 7.083.59 6.493 4.132-.296 2.508-1.476 3.394-4.132 3.394-2.656 0-3.837-.886-4.132-3.394-.295-1.92.443-3.69 1.77-4.132h.001zm0 23.611c3.836-1.476 7.083.59 6.493 4.131-.296 2.509-1.476 3.394-4.132 3.394-2.656 0-3.837-.885-4.132-3.394-.295-1.918.443-3.69 1.77-4.132l.001.001zm0 10.329c3.836-1.476 7.083.59 6.493 4.132-.296 2.508-1.476 3.394-4.132 3.394-2.656 0-3.837-.886-4.132-3.394-.295-1.92.443-3.69 1.77-4.132h.001zm0 23.611c3.836-1.477 7.083.59 6.493 4.13-.296 2.51-1.476 3.395-4.132 3.395-2.656 0-3.837-.886-4.132-3.394-.295-1.918.443-3.69 1.77-4.132l.001.001zm0 11.804c3.836-1.475 7.083.59 6.493 4.132-.296 2.509-1.476 3.394-4.132 3.394-2.656 0-3.837-.885-4.132-3.394-.295-1.918.443-3.69 1.77-4.132h.001zm0 22.135c3.836-1.476 7.083.59 6.493 4.132-.296 2.508-1.476 3.394-4.132 3.394-2.656 0-3.837-.886-4.132-3.394-.295-1.92.443-3.69 1.77-4.132h.001zm0 11.805c3.836-1.476 7.083.59 6.493 4.132-.296 2.508-1.476 3.394-4.132 3.394-2.656 0-3.837-.886-4.132-3.394-.295-1.919.443-3.69 1.77-4.132h.001zm0 11.806c3.836-1.476 7.083.59 6.493 4.131-.296 2.509-1.476 3.394-4.132 3.394-2.656 0-3.837-.885-4.132-3.394-.295-1.918.443-3.69 1.77-4.132h.001zm0 11.804c3.836-1.475 7.083.59 6.493 4.132-.296 2.509-1.476 3.394-4.132 3.394-2.656 0-3.837-.885-4.132-3.394-.295-1.918.443-3.689 1.77-4.132h.001zm0 45.746c3.836-1.476 7.083.59 6.493 4.13-.296 2.51-1.476 3.395-4.132 3.395-2.656 0-3.837-.885-4.132-3.394-.295-1.918.443-3.69 1.77-4.132l.001.001zm0 22.134c3.836-1.476 7.083.59 6.493 4.132-.296 2.508-1.476 3.394-4.132 3.394-2.656 0-3.837-.886-4.132-3.394-.295-1.92.443-3.69 1.77-4.132h.001zm0 11.806c3.836-1.477 7.083.59 6.493 4.13-.296 2.51-1.476 3.395-4.132 3.395-2.656 0-3.837-.886-4.132-3.394-.295-1.918.443-3.69 1.77-4.132h.001z"/></g><path d="M192.475 165.317h70.05a28.657 28.657 0 0128.658 28.657v70.05a28.657 28.657 0 01-28.657 28.658h-70.051a28.657 28.657 0 01-28.658-28.656v-70.052a28.657 28.657 0 0128.658-28.657zm39.18 43.76c5.939 0 11.632 2.403 15.351 5.705a2.337 2.337 0 003.232-.063l4.426-4.49a2.308 2.308 0 00-.108-3.363 34.99 34.99 0 00-11.864-6.67l1.388-6.61a2.318 2.318 0 00-2.27-2.796h-8.553a2.32 2.32 0 00-2.267 1.834l-1.248 5.878c-11.368.57-21.006 6.24-21.006 17.882 0 10.075 7.973 14.392 16.386 17.386 7.973 2.987 12.179 4.094 12.179 8.3 0 4.321-4.203 6.866-10.409 6.866-5.652 0-11.574-1.866-16.172-6.398a2.308 2.308 0 00-3.245-.006l-4.754 4.69a2.33 2.33 0 00.013 3.335c3.71 3.597 8.406 6.202 13.762 7.663l-1.306 6.123a2.321 2.321 0 002.251 2.802l8.566.064a2.315 2.315 0 002.286-1.84l1.235-5.89c13.616-.838 21.945-8.237 21.945-19.068 0-9.966-8.3-14.172-18.378-17.604-5.757-2.104-10.74-3.545-10.74-7.862 0-4.203 4.648-5.869 9.297-5.869h.003v.001z" fill="#00D632" stroke="null"/></svg>