<svg width="455" height="530" xmlns="http://www.w3.org/2000/svg" version="1.0"><g stroke="null"><path fill="#3179f6" stroke="#3179f6" d="M.685 456h178.808v70.244H.685z"/><path fill="#efbf54" stroke="#efbf54" d="M182.473 456h268.212v70.244H182.473z"/><g font-size="110" text-rendering="geometricPrecision" font-family="Verdana,Geneva,DejaVu Sans,sans-serif" text-anchor="middle" fill="#fff"><text textLength="330" fill-opacity=".3" fill="#010101" y="1582.991" x="226.366" aria-hidden="true" transform="matrix(.45035 0 0 .4246 -3.76 -159.372)">PayPal</text><text textLength="330" y="1572.991" x="226.366" transform="matrix(.45035 0 0 .4246 -3.76 -159.372)">PayPal</text><text textLength="470" fill-opacity=".3" fill="#010101" y="1582.991" x="706.366" aria-hidden="true" transform="matrix(.45035 0 0 .4246 -3.76 -159.372)">DONATE</text><text textLength="470" y="1572.991" x="706.366" transform="matrix(.45035 0 0 .4246 -3.76 -159.372)">DONATE</text></g></g><g stroke="null"><path d="M21 19h14.345v14.345H21zM35.345 19H49.69v14.345H35.345zM49.69 19h14.345v14.345H49.69z"/><path d="M64.034 19h14.345v14.345H64.034zM78.379 19h14.345v14.345H78.379zM92.724 19h14.345v14.345H92.724zM107.069 19h14.345v14.345h-14.345zM164.448 19h14.345v14.345h-14.345zM178.793 19h14.345v14.345h-14.345zM193.138 19h14.345v14.345h-14.345zM250.517 19h14.345v14.345h-14.345zM264.862 19h14.345v14.345h-14.345z"/><path d="M279.207 19h14.345v14.345h-14.345zM293.552 19h14.345v14.345h-14.345zM336.586 19h14.345v14.345h-14.345z"/><path d="M350.931 19h14.345v14.345h-14.345zM365.276 19h14.345v14.345h-14.345z"/><path d="M379.621 19h14.345v14.345h-14.345zM393.966 19h14.345v14.345h-14.345z"/><path d="M408.31 19h14.345v14.345H408.31z"/><path d="M422.655 19H437v14.345h-14.345zM21 33.345h14.345V47.69H21zM107.069 33.345h14.345V47.69h-14.345zM164.448 33.345h14.345V47.69h-14.345zM193.138 33.345h14.345V47.69h-14.345zM236.172 33.345h14.345V47.69h-14.345zM250.517 33.345h14.345V47.69h-14.345zM264.862 33.345h14.345V47.69h-14.345zM307.897 33.345h14.345V47.69h-14.345zM336.586 33.345h14.345V47.69h-14.345zM422.655 33.345H437V47.69h-14.345zM21 47.69h14.345v14.345H21zM49.69 47.69h14.345v14.345H49.69z"/><path d="M64.034 47.69h14.345v14.345H64.034zM78.379 47.69h14.345v14.345H78.379zM107.069 47.69h14.345v14.345h-14.345zM135.759 47.69h14.345v14.345h-14.345z"/><path d="M150.103 47.69h14.345v14.345h-14.345zM193.138 47.69h14.345v14.345h-14.345zM221.828 47.69h14.345v14.345h-14.345z"/><path d="M236.172 47.69h14.345v14.345h-14.345zM307.897 47.69h14.345v14.345h-14.345zM336.586 47.69h14.345v14.345h-14.345zM365.276 47.69h14.345v14.345h-14.345z"/><path d="M379.621 47.69h14.345v14.345h-14.345zM393.966 47.69h14.345v14.345h-14.345zM422.655 47.69H437v14.345h-14.345zM21 62.034h14.345v14.345H21zM49.69 62.034h14.345v14.345H49.69z"/><path d="M64.034 62.034h14.345v14.345H64.034zM78.379 62.034h14.345v14.345H78.379zM107.069 62.034h14.345v14.345h-14.345zM135.759 62.034h14.345v14.345h-14.345zM193.138 62.034h14.345v14.345h-14.345zM207.483 62.034h14.345v14.345h-14.345zM264.862 62.034h14.345v14.345h-14.345zM293.552 62.034h14.345v14.345h-14.345zM336.586 62.034h14.345v14.345h-14.345zM365.276 62.034h14.345v14.345h-14.345z"/><path d="M379.621 62.034h14.345v14.345h-14.345zM393.966 62.034h14.345v14.345h-14.345zM422.655 62.034H437v14.345h-14.345zM21 76.379h14.345v14.345H21zM49.69 76.379h14.345v14.345H49.69z"/><path d="M64.034 76.379h14.345v14.345H64.034zM78.379 76.379h14.345v14.345H78.379zM107.069 76.379h14.345v14.345h-14.345zM135.759 76.379h14.345v14.345h-14.345zM207.483 76.379h14.345v14.345h-14.345zM236.172 76.379h14.345v14.345h-14.345zM250.517 76.379h14.345v14.345h-14.345zM293.552 76.379h14.345v14.345h-14.345z"/><path d="M307.897 76.379h14.345v14.345h-14.345zM336.586 76.379h14.345v14.345h-14.345zM365.276 76.379h14.345v14.345h-14.345z"/><path d="M379.621 76.379h14.345v14.345h-14.345zM393.966 76.379h14.345v14.345h-14.345zM422.655 76.379H437v14.345h-14.345zM21 90.724h14.345v14.345H21zM107.069 90.724h14.345v14.345h-14.345zM135.759 90.724h14.345v14.345h-14.345zM178.793 90.724h14.345v14.345h-14.345zM207.483 90.724h14.345v14.345h-14.345zM221.828 90.724h14.345v14.345h-14.345z"/><path d="M236.172 90.724h14.345v14.345h-14.345zM250.517 90.724h14.345v14.345h-14.345zM279.207 90.724h14.345v14.345h-14.345zM307.897 90.724h14.345v14.345h-14.345zM336.586 90.724h14.345v14.345h-14.345zM422.655 90.724H437v14.345h-14.345zM21 105.069h14.345v14.345H21zM35.345 105.069H49.69v14.345H35.345zM49.69 105.069h14.345v14.345H49.69z"/><path d="M64.034 105.069h14.345v14.345H64.034zM78.379 105.069h14.345v14.345H78.379zM92.724 105.069h14.345v14.345H92.724zM107.069 105.069h14.345v14.345h-14.345zM135.759 105.069h14.345v14.345h-14.345zM164.448 105.069h14.345v14.345h-14.345zM193.138 105.069h14.345v14.345h-14.345zM221.828 105.069h14.345v14.345h-14.345zM250.517 105.069h14.345v14.345h-14.345zM279.207 105.069h14.345v14.345h-14.345zM307.897 105.069h14.345v14.345h-14.345zM336.586 105.069h14.345v14.345h-14.345z"/><path d="M350.931 105.069h14.345v14.345h-14.345zM365.276 105.069h14.345v14.345h-14.345z"/><path d="M379.621 105.069h14.345v14.345h-14.345zM393.966 105.069h14.345v14.345h-14.345z"/><path d="M408.31 105.069h14.345v14.345H408.31z"/><path d="M422.655 105.069H437v14.345h-14.345zM135.759 119.414h14.345v14.345h-14.345zM164.448 119.414h14.345v14.345h-14.345zM178.793 119.414h14.345v14.345h-14.345zM193.138 119.414h14.345v14.345h-14.345zM221.828 119.414h14.345v14.345h-14.345zM250.517 119.414h14.345v14.345h-14.345zM279.207 119.414h14.345v14.345h-14.345zM293.552 119.414h14.345v14.345h-14.345z"/><path d="M307.897 119.414h14.345v14.345h-14.345zM21 133.759h14.345v14.345H21zM49.69 133.759h14.345v14.345H49.69z"/><path d="M64.034 133.759h14.345v14.345H64.034zM78.379 133.759h14.345v14.345H78.379zM92.724 133.759h14.345v14.345H92.724zM107.069 133.759h14.345v14.345h-14.345zM150.103 133.759h14.345v14.345h-14.345zM164.448 133.759h14.345v14.345h-14.345zM178.793 133.759h14.345v14.345h-14.345zM207.483 133.759h14.345v14.345h-14.345zM264.862 133.759h14.345v14.345h-14.345zM293.552 133.759h14.345v14.345h-14.345zM336.586 133.759h14.345v14.345h-14.345z"/><path d="M350.931 133.759h14.345v14.345h-14.345zM365.276 133.759h14.345v14.345h-14.345z"/><path d="M379.621 133.759h14.345v14.345h-14.345zM393.966 133.759h14.345v14.345h-14.345zM35.345 148.103H49.69v14.345H35.345zM78.379 148.103h14.345v14.345H78.379zM135.759 148.103h14.345v14.345h-14.345zM164.448 148.103h14.345v14.345h-14.345zM221.828 148.103h14.345v14.345h-14.345zM250.517 148.103h14.345v14.345h-14.345zM279.207 148.103h14.345v14.345h-14.345zM293.552 148.103h14.345v14.345h-14.345z"/><path d="M307.897 148.103h14.345v14.345h-14.345zM336.586 148.103h14.345v14.345h-14.345z"/><path d="M350.931 148.103h14.345v14.345h-14.345zM365.276 148.103h14.345v14.345h-14.345zM422.655 148.103H437v14.345h-14.345zM21 162.448h14.345v14.345H21zM35.345 162.448H49.69v14.345H35.345zM78.379 162.448h14.345v14.345H78.379zM107.069 162.448h14.345v14.345h-14.345zM164.448 162.448h14.345v14.345h-14.345zM178.793 162.448h14.345v14.345h-14.345zM236.172 162.448h14.345v14.345h-14.345zM250.517 162.448h14.345v14.345h-14.345zM279.207 162.448h14.345v14.345h-14.345zM307.897 162.448h14.345v14.345h-14.345z"/><path d="M322.241 162.448h14.345v14.345h-14.345zM49.69 176.793h14.345v14.345H49.69z"/><path d="M64.034 176.793h14.345v14.345H64.034zM92.724 176.793h14.345v14.345H92.724zM121.414 176.793h14.345v14.345h-14.345zM221.828 176.793h14.345v14.345h-14.345z"/><path d="M236.172 176.793h14.345v14.345h-14.345zM250.517 176.793h14.345v14.345h-14.345zM293.552 176.793h14.345v14.345h-14.345zM322.241 176.793h14.345v14.345h-14.345zM350.931 176.793h14.345v14.345h-14.345zM379.621 176.793h14.345v14.345h-14.345zM408.31 176.793h14.345v14.345H408.31zM35.345 191.138H49.69v14.345H35.345zM49.69 191.138h14.345v14.345H49.69zM78.379 191.138h14.345v14.345H78.379zM107.069 191.138h14.345v14.345h-14.345zM121.414 191.138h14.345v14.345h-14.345zM150.103 191.138h14.345v14.345h-14.345zM164.448 191.138h14.345v14.345h-14.345zM193.138 191.138h14.345v14.345h-14.345zM236.172 191.138h14.345v14.345h-14.345zM250.517 191.138h14.345v14.345h-14.345zM264.862 191.138h14.345v14.345h-14.345zM379.621 191.138h14.345v14.345h-14.345zM393.966 191.138h14.345v14.345h-14.345zM49.69 205.483h14.345v14.345H49.69z"/><path d="M64.034 205.483h14.345v14.345H64.034zM78.379 205.483h14.345v14.345H78.379zM92.724 205.483h14.345v14.345H92.724zM336.586 205.483h14.345v14.345h-14.345zM365.276 205.483h14.345v14.345h-14.345zM422.655 205.483H437v14.345h-14.345zM21 219.828h14.345v14.345H21zM35.345 219.828H49.69v14.345H35.345zM64.034 219.828h14.345v14.345H64.034zM92.724 219.828h14.345v14.345H92.724zM107.069 219.828h14.345v14.345h-14.345zM350.931 219.828h14.345v14.345h-14.345zM379.621 219.828h14.345v14.345h-14.345zM393.966 219.828h14.345v14.345h-14.345z"/><path d="M35.345 234.172H49.69v14.345H35.345zM350.931 234.172h14.345v14.345h-14.345zM365.276 234.172h14.345v14.345h-14.345zM408.31 234.172h14.345v14.345H408.31zM21 248.517h14.345v14.345H21zM49.69 248.517h14.345v14.345H49.69z"/><path d="M64.034 248.517h14.345v14.345H64.034zM92.724 248.517h14.345v14.345H92.724zM107.069 248.517h14.345v14.345h-14.345zM350.931 248.517h14.345v14.345h-14.345zM379.621 248.517h14.345v14.345h-14.345zM393.966 248.517h14.345v14.345h-14.345zM135.759 262.862h14.345v14.345h-14.345zM250.517 262.862h14.345v14.345h-14.345zM293.552 262.862h14.345v14.345h-14.345zM336.586 262.862h14.345v14.345h-14.345z"/><path d="M350.931 262.862h14.345v14.345h-14.345zM365.276 262.862h14.345v14.345h-14.345zM393.966 262.862h14.345v14.345h-14.345zM422.655 262.862H437v14.345h-14.345zM35.345 277.207H49.69v14.345H35.345zM49.69 277.207h14.345v14.345H49.69z"/><path d="M64.034 277.207h14.345v14.345H64.034zM78.379 277.207h14.345v14.345H78.379zM107.069 277.207h14.345v14.345h-14.345zM121.414 277.207h14.345v14.345h-14.345zM193.138 277.207h14.345v14.345h-14.345zM236.172 277.207h14.345v14.345h-14.345zM250.517 277.207h14.345v14.345h-14.345zM279.207 277.207h14.345v14.345h-14.345zM322.241 277.207h14.345v14.345h-14.345zM336.586 277.207h14.345v14.345h-14.345z"/><path d="M350.931 277.207h14.345v14.345h-14.345zM393.966 277.207h14.345v14.345h-14.345zM35.345 291.552H49.69v14.345H35.345zM49.69 291.552h14.345v14.345H49.69zM121.414 291.552h14.345v14.345h-14.345z"/><path d="M135.759 291.552h14.345v14.345h-14.345zM164.448 291.552h14.345v14.345h-14.345zM178.793 291.552h14.345v14.345h-14.345zM221.828 291.552h14.345v14.345h-14.345zM250.517 291.552h14.345v14.345h-14.345zM279.207 291.552h14.345v14.345h-14.345zM307.897 291.552h14.345v14.345h-14.345zM350.931 291.552h14.345v14.345h-14.345zM365.276 291.552h14.345v14.345h-14.345zM408.31 291.552h14.345v14.345H408.31zM35.345 305.897H49.69v14.345H35.345zM49.69 305.897h14.345v14.345H49.69zM92.724 305.897h14.345v14.345H92.724zM107.069 305.897h14.345v14.345h-14.345z"/><path d="M150.103 305.897h14.345v14.345h-14.345zM164.448 305.897h14.345v14.345h-14.345zM178.793 305.897h14.345v14.345h-14.345zM264.862 305.897h14.345v14.345h-14.345zM293.552 305.897h14.345v14.345h-14.345z"/><path d="M307.897 305.897h14.345v14.345h-14.345z"/><path d="M322.241 305.897h14.345v14.345h-14.345zM336.586 305.897h14.345v14.345h-14.345z"/><path d="M350.931 305.897h14.345v14.345h-14.345zM365.276 305.897h14.345v14.345h-14.345zM393.966 305.897h14.345v14.345h-14.345z"/><path d="M408.31 305.897h14.345v14.345H408.31z"/><path d="M422.655 305.897H437v14.345h-14.345zM135.759 320.241h14.345v14.345h-14.345z"/><path d="M150.103 320.241h14.345v14.345h-14.345zM193.138 320.241h14.345v14.345h-14.345zM207.483 320.241h14.345v14.345h-14.345zM221.828 320.241h14.345v14.345h-14.345zM279.207 320.241h14.345v14.345h-14.345zM307.897 320.241h14.345v14.345h-14.345zM365.276 320.241h14.345v14.345h-14.345z"/><path d="M379.621 320.241h14.345v14.345h-14.345zM393.966 320.241h14.345v14.345h-14.345z"/><path d="M408.31 320.241h14.345v14.345H408.31z"/><path d="M422.655 320.241H437v14.345h-14.345zM21 334.586h14.345v14.345H21zM35.345 334.586H49.69v14.345H35.345zM49.69 334.586h14.345v14.345H49.69z"/><path d="M64.034 334.586h14.345v14.345H64.034zM78.379 334.586h14.345v14.345H78.379zM92.724 334.586h14.345v14.345H92.724zM107.069 334.586h14.345v14.345h-14.345zM164.448 334.586h14.345v14.345h-14.345zM178.793 334.586h14.345v14.345h-14.345zM207.483 334.586h14.345v14.345h-14.345zM221.828 334.586h14.345v14.345h-14.345z"/><path d="M236.172 334.586h14.345v14.345h-14.345zM250.517 334.586h14.345v14.345h-14.345zM279.207 334.586h14.345v14.345h-14.345zM293.552 334.586h14.345v14.345h-14.345z"/><path d="M307.897 334.586h14.345v14.345h-14.345zM336.586 334.586h14.345v14.345h-14.345zM365.276 334.586h14.345v14.345h-14.345z"/><path d="M379.621 334.586h14.345v14.345h-14.345zM393.966 334.586h14.345v14.345h-14.345zM21 348.931h14.345v14.345H21zM107.069 348.931h14.345v14.345h-14.345zM135.759 348.931h14.345v14.345h-14.345zM178.793 348.931h14.345v14.345h-14.345zM207.483 348.931h14.345v14.345h-14.345zM236.172 348.931h14.345v14.345h-14.345zM250.517 348.931h14.345v14.345h-14.345zM293.552 348.931h14.345v14.345h-14.345z"/><path d="M307.897 348.931h14.345v14.345h-14.345zM365.276 348.931h14.345v14.345h-14.345zM422.655 348.931H437v14.345h-14.345zM21 363.276h14.345v14.345H21zM49.69 363.276h14.345v14.345H49.69z"/><path d="M64.034 363.276h14.345v14.345H64.034zM78.379 363.276h14.345v14.345H78.379zM107.069 363.276h14.345v14.345h-14.345zM135.759 363.276h14.345v14.345h-14.345z"/><path d="M150.103 363.276h14.345v14.345h-14.345zM221.828 363.276h14.345v14.345h-14.345z"/><path d="M236.172 363.276h14.345v14.345h-14.345zM264.862 363.276h14.345v14.345h-14.345zM307.897 363.276h14.345v14.345h-14.345z"/><path d="M322.241 363.276h14.345v14.345h-14.345zM336.586 363.276h14.345v14.345h-14.345z"/><path d="M350.931 363.276h14.345v14.345h-14.345zM365.276 363.276h14.345v14.345h-14.345zM393.966 363.276h14.345v14.345h-14.345zM21 377.621h14.345v14.345H21zM49.69 377.621h14.345v14.345H49.69z"/><path d="M64.034 377.621h14.345v14.345H64.034zM78.379 377.621h14.345v14.345H78.379zM107.069 377.621h14.345v14.345h-14.345zM135.759 377.621h14.345v14.345h-14.345zM164.448 377.621h14.345v14.345h-14.345zM178.793 377.621h14.345v14.345h-14.345zM193.138 377.621h14.345v14.345h-14.345zM250.517 377.621h14.345v14.345h-14.345zM264.862 377.621h14.345v14.345h-14.345z"/><path d="M279.207 377.621h14.345v14.345h-14.345zM293.552 377.621h14.345v14.345h-14.345zM350.931 377.621h14.345v14.345h-14.345zM379.621 377.621h14.345v14.345h-14.345zM393.966 377.621h14.345v14.345h-14.345z"/><path d="M408.31 377.621h14.345v14.345H408.31z"/><path d="M422.655 377.621H437v14.345h-14.345zM21 391.966h14.345v14.345H21zM49.69 391.966h14.345v14.345H49.69z"/><path d="M64.034 391.966h14.345v14.345H64.034zM78.379 391.966h14.345v14.345H78.379zM107.069 391.966h14.345v14.345h-14.345zM135.759 391.966h14.345v14.345h-14.345z"/><path d="M150.103 391.966h14.345v14.345h-14.345zM207.483 391.966h14.345v14.345h-14.345zM236.172 391.966h14.345v14.345h-14.345zM250.517 391.966h14.345v14.345h-14.345zM336.586 391.966h14.345v14.345h-14.345z"/><path d="M350.931 391.966h14.345v14.345h-14.345zM365.276 391.966h14.345v14.345h-14.345z"/><path d="M379.621 391.966h14.345v14.345h-14.345zM393.966 391.966h14.345v14.345h-14.345z"/><path d="M408.31 391.966h14.345v14.345H408.31zM21 406.31h14.345v14.345H21zM107.069 406.31h14.345v14.345h-14.345zM150.103 406.31h14.345v14.345h-14.345zM193.138 406.31h14.345v14.345h-14.345zM207.483 406.31h14.345v14.345h-14.345zM236.172 406.31h14.345v14.345h-14.345zM250.517 406.31h14.345v14.345h-14.345zM279.207 406.31h14.345v14.345h-14.345zM307.897 406.31h14.345v14.345h-14.345z"/><path d="M322.241 406.31h14.345v14.345h-14.345zM350.931 406.31h14.345v14.345h-14.345zM379.621 406.31h14.345v14.345h-14.345zM408.31 406.31h14.345v14.345H408.31zM21 420.655h14.345V435H21zM35.345 420.655H49.69V435H35.345zM49.69 420.655h14.345V435H49.69z"/><path d="M64.034 420.655h14.345V435H64.034zM78.379 420.655h14.345V435H78.379zM92.724 420.655h14.345V435H92.724zM107.069 420.655h14.345V435h-14.345zM135.759 420.655h14.345V435h-14.345zM164.448 420.655h14.345V435h-14.345zM178.793 420.655h14.345V435h-14.345zM207.483 420.655h14.345V435h-14.345zM264.862 420.655h14.345V435h-14.345zM293.552 420.655h14.345V435h-14.345zM322.241 420.655h14.345V435h-14.345zM350.931 420.655h14.345V435h-14.345zM365.276 420.655h14.345V435h-14.345z"/><path d="M379.621 420.655h14.345V435h-14.345zM393.966 420.655h14.345V435h-14.345z"/></g><g stroke="null"><path fill="#253B80" d="M204.003 221.954h-11.1c-.76 0-1.406.552-1.524 1.302l-4.49 28.463a.924.924 0 00.916 1.068h5.299c.76 0 1.405-.552 1.524-1.303l1.21-7.677a1.54 1.54 0 011.523-1.304h3.514c7.312 0 11.532-3.538 12.634-10.55.496-3.067.02-5.477-1.415-7.165-1.578-1.854-4.376-2.834-8.091-2.834h0zm1.28 10.396c-.607 3.983-3.65 3.983-6.593 3.983h-1.675l1.175-7.439c.07-.45.46-.78.914-.78h.768c2.004 0 3.895 0 4.872 1.142.583.682.762 1.694.54 3.094zM237.183 232.221h-5.316a.926.926 0 00-.914.781l-.235 1.487-.372-.54c-1.15-1.67-3.716-2.228-6.278-2.228-5.873 0-10.89 4.45-11.867 10.69-.508 3.113.214 6.09 1.98 8.165 1.62 1.91 3.937 2.704 6.695 2.704 4.733 0 7.357-3.043 7.357-3.043l-.237 1.477a.925.925 0 00.912 1.071h4.788c.761 0 1.404-.552 1.524-1.303l2.873-18.193a.921.921 0 00-.91-1.068h0zm-7.41 10.346c-.513 3.036-2.923 5.075-5.997 5.075-1.543 0-2.777-.495-3.569-1.433-.785-.932-1.084-2.258-.834-3.735.479-3.01 2.93-5.116 5.956-5.116 1.51 0 2.737.502 3.545 1.448.81.956 1.131 2.29.9 3.76h0zM265.492 232.221h-5.342c-.51 0-.988.254-1.277.677l-7.367 10.852-3.123-10.428a1.547 1.547 0 00-1.48-1.1h-5.249a.926.926 0 00-.878 1.223l5.884 17.266-5.532 7.809a.925.925 0 00.755 1.46h5.335c.506 0 .98-.246 1.268-.662l17.765-25.644a.925.925 0 00-.76-1.453h0z"/><path fill="#179BD7" d="M283.176 221.954h-11.101c-.758 0-1.404.552-1.523 1.302l-4.489 28.463a.924.924 0 00.912 1.068h5.697c.53 0 .982-.386 1.065-.912l1.274-8.068a1.54 1.54 0 011.522-1.304h3.513c7.313 0 11.531-3.538 12.635-10.55.498-3.067.02-5.477-1.417-7.165-1.576-1.854-4.372-2.834-8.088-2.834h0zm1.281 10.396c-.605 3.983-3.649 3.983-6.593 3.983h-1.673l1.177-7.439c.07-.45.456-.78.912-.78h.767c2.003 0 3.896 0 4.873 1.142.583.682.76 1.694.537 3.094h0zM316.355 232.221h-5.312a.92.92 0 00-.913.781l-.235 1.487-.373-.54c-1.151-1.67-3.715-2.228-6.277-2.228-5.873 0-10.889 4.45-11.866 10.69-.506 3.113.213 6.09 1.979 8.165 1.623 1.91 3.937 2.704 6.695 2.704 4.733 0 7.357-3.043 7.357-3.043l-.237 1.477a.925.925 0 00.916 1.071h4.786c.758 0 1.404-.552 1.522-1.303l2.875-18.193a.927.927 0 00-.917-1.068h0zm-7.41 10.346c-.51 3.036-2.923 5.075-5.997 5.075-1.54 0-2.777-.495-3.569-1.433-.785-.932-1.08-2.258-.834-3.735.482-3.01 2.93-5.116 5.957-5.116 1.51 0 2.736.502 3.544 1.448.814.956 1.135 2.29.9 3.76h0zM322.621 222.735l-4.556 28.984a.924.924 0 00.913 1.068h4.58a1.54 1.54 0 001.524-1.303l4.493-28.462a.925.925 0 00-.913-1.07h-5.128a.927.927 0 00-.913.783h0z"/><path fill="#253B80" d="M140.793 258.318l.849-5.391-1.89-.044h-9.03l6.275-39.786a.513.513 0 01.51-.435h15.224c5.054 0 8.542 1.052 10.363 3.128.853.973 1.397 1.991 1.66 3.111.276 1.175.28 2.579.011 4.291l-.019.125v1.097l.854.484c.719.382 1.29.818 1.728 1.318.73.833 1.203 1.89 1.403 3.146.206 1.29.138 2.825-.2 4.564-.39 2-1.02 3.74-1.87 5.166a10.627 10.627 0 01-2.962 3.246c-1.13.802-2.472 1.41-3.99 1.8-1.47.383-3.146.576-4.985.576h-1.185c-.847 0-1.67.305-2.316.852a3.587 3.587 0 00-1.208 2.155l-.089.486-1.5 9.503-.068.349c-.018.11-.049.165-.094.203a.251.251 0 01-.156.056h-7.315 0z"/><path fill="#179BD7" d="M166.408 223.444h0c-.045.29-.097.587-.156.893-2.008 10.308-8.876 13.869-17.649 13.869h-4.466a2.17 2.17 0 00-2.145 1.837h0l-2.286 14.503-.648 4.112a1.143 1.143 0 001.128 1.32h7.922c.938 0 1.735-.681 1.883-1.606l.078-.403 1.491-9.465.096-.52a1.905 1.905 0 011.883-1.61h1.185c7.675 0 13.684-3.116 15.44-12.134.733-3.767.354-6.912-1.588-9.124-.587-.667-1.316-1.22-2.168-1.672h0z"/><path fill="#222D65" d="M164.308 222.606a15.845 15.845 0 00-1.953-.433c-1.204-.195-2.524-.287-3.937-.287h-11.933a1.902 1.902 0 00-1.881 1.61l-2.538 16.078-.074.469a2.17 2.17 0 012.145-1.837h4.466c8.773 0 15.641-3.563 17.65-13.87.06-.305.11-.602.155-.892-.508-.27-1.058-.5-1.65-.696a14.651 14.651 0 00-.45-.142h0z"/><path fill="#253B80" d="M144.604 223.496a1.897 1.897 0 011.881-1.609h11.933c1.413 0 2.733.093 3.937.288a15.83 15.83 0 012.404.573c.592.196 1.143.428 1.65.696.598-3.81-.004-6.403-2.064-8.752-2.27-2.585-6.369-3.692-11.613-3.692h-15.224a2.176 2.176 0 00-2.15 1.839l-6.342 40.195a1.308 1.308 0 001.29 1.512h9.4l2.36-14.972 2.538-16.078h0z"/></g></svg>