<svg width="455" height="530" xmlns="http://www.w3.org/2000/svg" version="1.0"><path fill="#00bf5f" d="M24 60.5V99h77V22H24v38.5zm66 0V88H35V33h55v27.5z"/><path fill="#00bf5f" d="M46 60.5V77h33V44H46v16.5z"/><path d="M112 27.5V33h33V22h-33v5.5zM156 27.5V33h11V22h-11v5.5z"/><path d="M189 27.5V33h-11v11h-33v11h22v11h-11v11h22V66h11v22h-11v11h11v22h11v22h-11v-11h-11v-22h-11V88h-10.9l-.3 5.2-.3 5.3-5.2.3-5.3.3V66h-11V44h-11v11h-11v11h11v11h11v33h-22v22H90v-11h11v-11H68v11H57v-11H46v11h11v11H46v11h11v11H35v-11H24v22h11v11H24v22.1l5.2-.3 5.3-.3.3-5.2.3-5.3H57v-22h11v11h11v11.1l10.8-.3 10.7-.3.3-5.3.3-5.2H90v-11h22v11.1l5.3-.3 5.2-.3.3-5.2.3-5.3 16.2-.2 16.2-.3.3-5.2.3-5.3 21.7-.2 21.7-.3.3-5.3.3-5.2H211v11.1l5.3-.3 5.2-.3.3-5.3.3-5.2H211v-22h20.9l.3 10.7.3 10.8 16.3.3 16.2.2v11h-11v11h-10v-11h-12v11h-10v7.1l5.3-.3c5.1-.3 5.2-.4 5.5-3.6.3-3.1.4-3.2 5.2-3.2s4.9.1 5.2 3.2c.3 3.3.3 3.3 5.8 3.3s5.5 0 5.8-3.3c.3-3.1.4-3.2 5.3-3.2h4.9v-11h22v-22h11v66h-19v11h7.9l.3 10.7.3 10.8 10.8.3 10.7.3v20.8l-5.2.3-5.3.3-.3 5.2-.3 5.3H287v-11h-4c-3.5 0-4 .3-4 2.2.1 2.4 5.2 8.8 7 8.8.6 0 1 4.2 1 10.9v11l-5.2.3-5.3.3-.3 10.7-.3 10.8H265v-11h-20.9l-.3-5.3-.3-5.2-5.2-.3-5.3-.3v-4c0-3.8.1-3.9 3.8-3.9 2.2-.1 4.7-.9 6.1-2l2.3-2-2.5-3.3c-2.7-3.5-4.7-9.5-4.7-13.9 0-4.6-1.8-4.1-3.7 1.2-1 2.7-2.3 5-3 5-1.4 0-8.2-3.8-10.1-5.7-.7-.7-1.8-1.6-2.5-2-.7-.5-3.6-3.4-6.5-6.6l-5.3-5.7 2-2.9c1.2-1.6 2.1-4.1 2.1-5.5 0-1.6.8-3 2.1-3.7 2.1-1.1 2.1-1.6 1.5-10.3l-.6-9.2 3.3-3.7c2.9-3.3 3.8-3.7 8-3.7 4.9 0 6.3-1.3 2.5-2.3l-2.2-.6 2.5-2.8c1.5-1.5 2.9-4.2 3.2-5.9l.6-3.2-8.9-.7c-8.3-.7-9.1-.5-12.1 1.6-1.8 1.2-4.3 4.6-5.8 7.8-3.2 6.8-3.5 17.8-.8 25.4 2.3 6.4 2.1 11.1-.4 16.5l-2.1 4.3 3.3 3.7c1.9 2 4.4 4.4 5.7 5.5 3 2.5 2.8 3.7-.8 3.7-3 0-9 2.4-9 3.7 0 .3 1.1 2.1 2.5 3.9 1.4 1.8 2.5 4 2.5 4.8 0 .9.7 1.6 1.5 1.6.9 0 3.5.9 5.7 2 2.3 1.1 5.2 2 6.4 2 2.9 0 5.4 1 5.4 2.1 0 .5-.7.9-1.5.9-1.1 0-1.5 1.1-1.5 4v4h10v11h11v10.9l-5.2.3-5.3.3-.3 5.3-.3 5.2H222v11h10v11h-10v33h10v11h-32v11h-11v-33h11v-22h11v-33h11.1l-.3-5.3-.3-5.2-10.7-.3-10.8-.3V318h-11v-33h22v-8h-22v8h-22v10.9l5.3.3 5.2.3.3 16.2.2 16.2 10.8.3 10.7.3.3 5.2.3 5.3H189v22h-32.9l-.3-10.7-.3-10.8-5.2-.3-5.3-.3V351h-22v-22h11.1l-.3-10.8-.3-10.7-5.2-.3-5.2-.3-.3-10.7-.3-10.7-5.2-.3-5.3-.3V296h-10.9l-.3-5.3-.3-5.2-10.7-.3-10.8-.3V263h11v11l21.8.2 21.7.3.3 10.7.3 10.8H145v22h22.1l-.3-5.3-.3-5.2-5.2-.3-5.2-.3-.3-5.2-.3-5.2-5.2-.3-5.3-.3V274h29.1l-.3-5.3c-.3-5.1-.4-5.2-3.5-5.5-3.1-.3-3.2-.5-3.5-5.5l-.3-5.2-10.7-.3-10.8-.3v-9.8l10.8-.3 10.7-.3.3-5.2c.3-5 .4-5.2 3.5-5.5 3.1-.3 3.2-.4 3.5-5.6l.3-5.2H167v10h-22v11h-11v-20.9l10.8-.3 10.7-.3.3-16.3.2-16.2h11v11.1l3.3-.3 3.2-.3.3-10.8.3-10.7h-40l-.3 10.7-.3 10.8-5.2.3-5.3.3V187h-11v11h11v11h11v11h-22v10h-11v-10H79v-10.9l10.8-.3 10.7-.3.3-5.3.3-5.2H79v11H68v-11H57.1l-.3 5.2-.3 5.3-5.2.3-5.2.3-.3 5.2-.3 5.2-5.2.3-5.3.3V209H24l.2 21.7.3 21.8 5.3.3 5.2.3v9.8l5.3.3 5.2.3.3 5.2.3 5.2 5.2.3 5.2.3.3 5.2.3 5.3H79v11H68v11H57v11H35v-11h11.1l-.3-5.3-.3-5.2-5.2-.3-5.2-.3-.3-5.2-.3-5.2-5.2-.3-5.3-.3V296h11v11H24v11h11v11H24v11h11v-11h11v11h22v-11H57v-11l27.3.2 27.2.3.3 16.2.2 16.3h11v11h-11v22h11v-22.1l10.8.3 10.7.3.3 5.2.3 5.2 5.2.3 5.2.3.3 5.3.3 5.2H145v11h-33v11h11v11h11v11h11v-11h11v11h11v-22h11v22h66v-11h21v11h11v-22h11v11h22v11h22v-11h11v-22h22v-11h33v-11h-11v-11h11v-11h-11v-11h11v-11h11v55h22v-55h-22v-22h10.9l.3-5.3.3-5.2 5.3-.3 5.2-.3v-11l-10.7.3-10.8.3-.3 10.7-.3 10.7-10.7.3-10.7.3-.3 5.2-.3 5.3H397v11h-33v-22.1l-5.2.3-5.3.3-.3 10.7-.3 10.8H342v-11h-22.1l.3-5.3.3-5.2 10.8-.3 10.7-.3V296h44v-11h-22.1l.3-5.3.3-5.2 5.2-.3 5.2-.3.3-5.2.3-5.2 5.3-.3 5.2-.3V274h11v-21h11v-11h22v-21.9l-5.2-.3-5.3-.3-.3-5.3-.3-5.2H430v-33h-11v-11h11v-22h-22v33h11v33h-11v11h-11v32h-11v-11h-11v-20.9l-10.7-.3-10.8-.3-.3-16.3-.2-16.2h10.9l.3 5.2.3 5.3 5.2.3 5.2.3.3 5.2.3 5.2 5.3.3 5.2.3V198h22v-11h-22v11h-11v-22h22v-33h-11v-10.9l-10.7-.3-10.8-.3-.3-5.3-.3-5.2H353v-11h-22v11.1l-5.2-.3-5.3-.3-.3-5.2-.3-5.2-10.7-.3-10.7-.3-.3-10.8-.3-10.7h11l.3 5.2.3 5.3 5.3.3 5.2.3V77h11V66h11V55h-22V33h-22v11.1l-10.7-.3-10.8-.3-.3-5.3-.3-5.2H265V21.9l-10.7.3-10.8.3v10l10.8.3 10.7.3V44h-31.9l-.3-10.8-.3-10.7-5.2-.3-5.3-.3V55h32v11h-11.1l.3 5.2.3 5.3 10.8.3 10.7.3V121h-21v-11h-22V99.1l5.3-.3 5.2-.3.3-5.3.3-5.2H222V77.1l5.3-.3 5.2-.3.3-5.3.3-5.2h-22l-.3 5.2-.3 5.3-5.2.3-5.3.3v-22l5.3-.3 5.2-.3.3-16.3.2-16.2h-22v5.5zM200 44v11h-22V44h11V33h11v11zm109 5.5V55h11v11h-11v11h-11v11h-11v22.1l-5.2-.3-5.3-.3-.3-10.8-.3-10.7H287V77.1l-5.2-.3-5.3-.3-.3-5.2-.3-5.2-5.2-.3-5.2-.3-.3-5.3-.3-5.2H276v11h11V55h11V44h11v5.5zm-109 44V99h11V88h11v11h-10.9l-.3 5.2-.3 5.3-5.2.3-5.3.3V99h-11V88h11v5.5zm-55 22.1v5.5l5.3-.3 5.2-.3.3-5.3.3-5.2H167v22h11.1l-.3 5.2-.3 5.3-5.2.3-5.3.3V132h-22v11h11v11h-11v-11h-22v-22h11v-11h11v5.6zm-66 21.9V154h11v-11h22.1l-.3 5.2-.3 5.3-10.7.3-10.8.3V165H79v-11H68v-33h11v16.5zm208-11v5.5h-11v11h-11v-22h22v5.5zm66 0v5.5h-11v11h11v22h11v-22h22v11h-11v11h-11v11.1l-5.2-.3-5.3-.3-.3-5.3-.3-5.2H342v55h-22v10h-11v-20.9l-5.2-.3-5.3-.3-.3-5.3-.3-5.2H320v-21.9l-5.2-.3-5.3-.3-.3-21.8-.2-21.7h33v-11h11v5.5zM210.5 223c-.3.5-1 1-1.6 1-.5 0-.9-.5-.9-1 0-.6.7-1 1.6-1 .8 0 1.2.4.9 1zM57 236v5H46v-10h11v5zm22 5.5V252H68v-21h11v10.5zm22-5.5v5H90v-10h11v5zm230.2.2l.3 5.3 5.3.3 5.2.3V231h11v20.9l-10.7.3-10.8.3-.3 5.2-.3 5.3H320v11h22v22h-44v11h-11v11h11v21.9l-5.2.3-5.3.3-.3 5.2-.3 5.3H298v10.9l-10.7.3-10.8.3-.3 5.2-.3 5.3H298v22h22v22h-11v-11h-11v-11h-11v-11h-11v-11h-11v-11.1l-10.7.3-10.8.3-.3 5.2-.3 5.3H233v-33h10v11h21.9l.3-5.3.3-5.2 5.2-.3 5.2-.3.3-5.2.3-5.2 5.3-.3 5.2-.3V318h-11v-11h10.9l.3-5.3.3-5.2 5.2-.3 5.2-.3.3-5.2.3-5.2 5.3-.3 5.2-.3V274h-11v-11h22v-32h10.9l.3 5.2zM112 247v5h-11v-10h11v5zm22 .5v5.5h11v10h-22v-21h11v5.5zm241-.5v5h-11v-10h11v5zM68 258v5H57v-10h11v5zm33 0v5H90v-10h11v5zm0 43.5v5.5H79v-11h22v5.5zM254 329v11h-10v-22h10v11zm77 16.5V362h-22.1l.3-10.8.3-10.7 5.3-.3 5.2-.3v-4.8c0-2.6.3-5.1.7-5.4.3-.4 2.8-.7 5.5-.7h4.8v16.5zm44 11V373h-33v-15.8c0-8.7.3-16.2.7-16.5.3-.4 7.8-.7 16.5-.7H375v16.5zm-208.2 33.2l.3 5.3H156v-11.1l5.3.3 5.2.3.3 5.2zm76.2-.2v5.5h-10v-11h10v5.5zm22 0v5.5h11v11h-21v-22h10v5.5zm77 0v5.5h-11v-4.8c0-2.7.3-5.2.7-5.5.3-.4 2.8-.7 5.5-.7h4.8v5.5zm-110 11v5.5h11v11h-32v-22h21v5.5zm-32.2 11.2l.3 5.3H189v-11.1l5.3.3 5.2.3.3 5.2z"/><path d="M287 71.5V77h11V66h-11v5.5zM134 126.5v5.5h11v-11h-11v5.5zM331 154v11h-11v11h11v-11h11v-22h-11v11zM353.7 351.7c-.4.3-.7 2.8-.7 5.5v4.8h11v-11h-4.8c-2.7 0-5.2.3-5.5.7zM331 33v11h11V22h-11v11z"/><path fill="#00bf5f" d="M353 60.5V99h77V22h-77v38.5zm66 0V88h-55V33h55v27.5z"/><path fill="#00bf5f" d="M375.1 60.3v16.5h33v-33h-33v16.5z"/><path d="M112 93.5V99h11V88h-11v5.5zM243.2 93.2l.3 5.3h11l.3-5.3.3-5.2h-12.2l.3 5.2zM331.2 93.2l.3 5.3 5.3.3 5.2.3V88h-11.1l.3 5.2zM386 115.5v5.5h11v-11h-11v5.5zM419 115.5v5.5h-11v11h22v-22h-11v5.5zM200 168.6v3.5l5.3-.3c5.1-.3 5.2-.4 5.5-3.6l.3-3.2H200v3.6zM233.5 178.9c-.3.5-.1 1.2.5 1.6 1.2.7 3-.2 3-1.6 0-1.2-2.7-1.2-3.5 0zM247.6 186.9c-.3.4-2.9.6-5.8.3-5.2-.4-5.3-.3-6.5 2.7-1 2.8-.9 3.3 2 6.1 1.7 1.6 3.4 3 3.8 3 .4 0 1.1.9 1.4 2.1.4 1.1 2.2 2.7 4 3.5 2.8 1.2 3.6 2.2 5 7.1 1.8 6.2 1.2 10.8-2.7 18.6-2.7 5.4-1.6 7 1.3 2 1.3-2.3 3.4-4.8 4.6-5.4 2.9-1.6 5.3-6.8 6.6-14.3.8-5.3.7-7.1-1.2-13.3-1.2-3.9-2.9-8.1-3.9-9.2-1.8-2.3-7.9-4.5-8.6-3.2zM224.2 206.7c-.6.3-1 .9-.6 1.4.7 1.2 4.4 1.2 4.4 0 0-1.1-2.1-1.9-3.8-1.4z"/><path d="M238 208c0 .5.5 1 1.1 1 .5 0 .7-.5.4-1-.3-.6-.8-1-1.1-1-.2 0-.4.4-.4 1zM242 209.5c0 1 1 1.5 3 1.5 3.5 0 4-1.5.8-2.4-3.4-.9-3.8-.8-3.8.9zM237.8 220.7c.7.3 1.6.2 1.9-.1.4-.3-.2-.6-1.3-.5-1.1 0-1.4.3-.6.6zM229 228c0 .5.4 1 .9 1 .6 0 1.3-.5 1.6-1 .3-.6-.1-1-.9-1-.9 0-1.6.4-1.6 1zM234.6 227.9c.5.5 1.9 1.2 3.2 1.6 1.6.5 2.2.2 2.2-.9s-1-1.6-3.2-1.6c-1.9 0-2.8.4-2.2.9zM222 238.7c0 1.5 4.7 5.2 7.4 5.8 8.7 1.7 10.3 1.5 12.1-1.1 2.4-3.8 1.5-4.5-3.2-2.4-4 1.8-4.5 1.8-9.5.2-2.9-.9-5.6-2.1-6-2.7-.5-.6-.8-.6-.8.2zM187 259.1c0 1.2 5.6 6.1 8.2 7.1 1.6.6 1.7.5.8-1.2-1-1.9-7.1-7-8.3-7-.4 0-.7.5-.7 1.1zM408.7 263.7c-.4.3-.7 2.8-.7 5.5v4.8h22v-11h-10.3c-5.7 0-10.7.3-11 .7zM266.4 280.2c-.3.4 1.3.8 3.5.8 2.3 0 4.1-.2 4.1-.4 0-.8-7.1-1.2-7.6-.4zM90 334.4v5.6h11.1l-.3-5.3-.3-5.2-5.2-.3-5.3-.3v5.5z"/><path fill="#00bf5f" d="M24 389.5V428h77v-77H24v38.5zm66 0V417H35v-55h55v27.5z"/><path fill="#00bf5f" d="M46 389.5V406h33v-33H46v16.5z"/><path d="M386 406v11h-22v11h22v-11h11v11h33v-33h-11v22h-11v-22h-22v11z"/><g stroke="null"><path fill="#3179f6" stroke="#3179f6" d="M.685 456h178.808v70.244H.685z"/><path fill="#efbf54" stroke="#efbf54" d="M182.473 456h268.212v70.244H182.473z"/><g font-size="110" text-rendering="geometricPrecision" font-family="Verdana,Geneva,DejaVu Sans,sans-serif" text-anchor="middle" fill="#fff"><text textLength="330" fill-opacity=".3" fill="#010101" y="1582.991" x="226.366" aria-hidden="true" transform="matrix(.45035 0 0 .4246 -3.76 -159.372)">微信</text><text textLength="330" y="1572.991" x="226.366" transform="matrix(.45035 0 0 .4246 -3.76 -159.372)">微信</text><text textLength="470" fill-opacity=".3" fill="#010101" y="1582.991" x="706.366" aria-hidden="true" transform="matrix(.45035 0 0 .4246 -3.76 -159.372)">向TA捐助</text><text textLength="470" y="1572.991" x="706.366" transform="matrix(.45035 0 0 .4246 -3.76 -159.372)">向TA捐助</text></g></g></svg>